<svg xmlns="http://www.w3.org/2000/svg" direction="ltr" width="640" height="94" viewBox="310.666748046875 319.3333435058594 640 94" stroke-linecap="round" stroke-linejoin="round" data-color-mode="light" class="tl-container tl-theme__force-sRGB tl-theme__light" style="background-color: transparent;"><defs/><g transform="matrix(1, 0, 0, 1, 310.6667, 319.3333)" opacity="1"><g data-lovart-layer-name="SVG 1"><g transform="scale(1, 1)"><g>
<g xmlns="http://www.w3.org/2000/svg" stroke-width="2.00" fill="none" stroke-linecap="butt">
<path stroke="#807600" stroke-opacity="0.996" vector-effect="non-scaling-stroke" d="   M 253.87 56.67   L 252.73 55.52   A 1.58 1.54 66.6 0 0 251.64 55.07   L 222.30 55.07   A 0.50 0.49 0.0 0 1 221.80 54.58   L 221.80 15.05   A 0.92 0.90 -69.4 0 0 221.50 14.37   L 217.50 10.81   A 2.50 2.50 0.0 0 0 215.84 10.18   L 200.91 10.18   A 1.36 1.34 25.2 0 0 200.06 10.48   Q 197.58 12.46 197.58 13.75   Q 197.62 24.92 197.68 55.64   A 0.46 0.46 0.0 0 1 196.92 55.98   L 196.39 55.51   A 1.73 1.72 65.5 0 0 195.25 55.08   L 171.99 55.08   A 0.56 0.55 -90.0 0 1 171.44 54.52   L 171.44 15.47   A 2.08 2.04 -64.1 0 0 171.02 14.22   Q 169.20 11.83 166.99 10.50   A 2.29 2.27 -28.9 0 0 165.79 10.16   Q 159.32 10.15 152.59 10.18   C 150.82 10.19 149.71 10.68 148.95 12.02   A 1.49 1.35 39.6 0 1 146.65 12.12   C 145.39 10.72 144.65 10.18 142.55 10.17   Q 138.86 10.16 107.69 10.19   C 104.75 10.19 103.71 11.39 102.03 13.39   A 1.14 1.14 0.0 0 1 100.39 13.51   L 97.73 11.15   A 3.91 3.90 -24.1 0 0 95.13 10.16   L 54.98 10.16   A 5.91 5.87 24.6 0 0 51.15 11.57   Q 48.19 14.09 45.56 16.94   Q 42.93 19.79 43.04 24.12   Q 43.34 36.91 43.09 66.25   C 43.07 68.83 43.66 70.19 45.51 71.76   Q 51.30 76.66 55.07 81.82   A 2.27 2.27 0.0 0 0 56.91 82.76   L 94.81 82.76   A 3.38 3.38 0.0 0 0 97.20 81.77   L 101.29 77.68   A 1.51 1.51 0.0 0 1 103.55 77.82   L 106.88 82.11   A 0.95 0.94 82.1 0 0 107.22 82.37   Q 108.34 82.85 110.26 82.83   Q 119.39 82.74 143.73 82.81   C 146.53 82.81 147.46 82.74 148.40 80.11   A 0.84 0.84 0.0 0 1 149.98 80.09   Q 150.47 81.33 151.31 82.24   A 1.65 1.65 0.0 0 0 152.52 82.77   Q 173.55 82.83 196.90 82.80   C 198.66 82.80 198.70 82.22 199.22 80.86   A 0.70 0.70 0.0 0 1 200.45 80.73   C 201.58 82.46 202.60 82.77 204.79 82.77   Q 236.03 82.83 251.94 82.80   C 253.98 82.80 255.35 82.12 255.88 80.19   A 0.59 0.58 37.4 0 1 256.95 80.05   Q 257.86 81.58 259.00 82.43   A 1.79 1.79 0.0 0 0 260.05 82.77   L 277.19 82.77   A 2.50 2.49 -0.0 0 0 279.69 80.28   L 279.69 57.48   A 0.34 0.34 0.0 0 1 280.03 57.14   L 290.33 57.14   A 0.48 0.48 0.0 0 1 290.81 57.62   L 290.81 78.11   A 1.52 1.50 28.0 0 0 291.08 78.97   Q 292.71 81.35 294.33 82.44   A 2.07 2.05 -27.8 0 0 295.48 82.79   L 313.16 82.79   A 1.00 0.99 -76.1 0 0 314.04 82.25   L 314.81 80.79   A 0.82 0.82 0.0 0 1 316.31 80.90   Q 316.96 82.73 318.80 82.74   Q 339.63 82.86 367.82 82.81   A 2.90 2.89 22.3 0 0 369.88 81.95   L 374.33 77.50   A 2.40 2.40 0.0 0 1 377.72 77.50   L 382.20 81.98   A 2.91 2.87 67.2 0 0 384.24 82.83   L 427.46 82.83   A 2.03 2.01 -61.0 0 0 428.55 82.51   Q 430.04 81.58 431.81 79.50   A 1.57 1.56 -43.7 0 1 434.24 79.55   L 436.14 82.00   A 2.18 2.17 -19.1 0 0 437.88 82.84   Q 448.66 82.75 451.35 82.83   C 456.05 82.96 455.84 80.00 455.88 75.88   Q 455.97 65.74 455.76 57.54   A 0.52 0.52 0.0 0 1 456.28 57.01   L 463.09 57.01   A 0.65 0.65 0.0 0 1 463.74 57.66   L 463.74 78.37   A 1.19 1.16 -68.0 0 0 464.08 79.20   L 467.14 82.26   A 1.94 1.91 -22.2 0 0 468.50 82.82   L 484.55 82.82   A 1.67 1.66 -67.4 0 0 485.73 82.33   L 487.25 80.81   A 0.55 0.55 0.0 0 1 488.15 81.00   C 488.63 82.22 489.06 82.83 490.56 82.82   Q 502.16 82.78 506.39 82.90   C 509.07 82.97 510.46 81.65 510.44 79.03   Q 510.41 71.77 510.36 57.61   A 0.42 0.41 -90.0 0 1 510.77 57.19   L 517.18 57.19   A 0.46 0.45 -90.0 0 1 517.63 57.65   L 517.63 78.47   A 1.61 1.60 21.3 0 0 518.16 79.66   L 521.29 82.44   A 1.54 1.51 -23.9 0 0 522.30 82.82   L 538.72 82.82   A 1.04 1.01 21.5 0 0 539.46 82.51   L 541.04 80.93   A 0.67 0.67 0.0 0 1 542.05 81.01   Q 543.10 82.46 544.54 82.80   A 1.17 0.80 -29.0 0 0 544.75 82.82   L 582.88 82.82   A 2.33 2.30 25.5 0 0 584.32 82.32   Q 588.11 79.30 589.50 75.13   A 0.43 0.39 -15.7 0 1 589.60 74.97   L 597.12 67.45   A 0.89 0.86 -23.1 0 0 597.38 66.83   L 597.38 21.98   A 3.08 3.07 -65.2 0 0 596.65 19.99   Q 592.63 15.27 587.95 11.54   Q 586.09 10.05 583.27 10.05   Q 566.12 10.02 541.39 10.07   A 1.04 1.02 22.1 0 0 540.66 10.37   L 538.13 12.90   A 1.35 1.35 0.0 0 1 536.07 12.72   Q 534.45 10.41 532.89 10.08   A 1.21 1.08 48.3 0 0 532.63 10.05   L 488.98 10.05   A 1.28 1.25 21.6 0 0 488.07 10.43   L 485.56 12.93   A 1.46 1.46 0.0 0 1 483.36 12.77   C 481.73 10.55 480.20 9.91 477.23 9.93   Q 448.14 10.12 439.40 10.07   A 1.55 1.53 22.3 0 0 438.31 10.52   L 435.13 13.70   A 1.04 1.04 0.0 0 1 433.81 13.82   Q 431.91 12.52 430.96 10.81   A 1.49 1.47 -14.3 0 0 429.66 10.05   L 382.23 10.05   A 2.37 2.36 22.7 0 0 380.57 10.73   L 376.90 14.40   A 0.74 0.74 0.0 0 1 375.88 14.43   L 371.13 10.20   A 0.75 0.72 64.5 0 0 370.65 10.02   L 316.22 10.02   A 1.06 1.03 -66.9 0 0 315.48 10.33   L 312.75 13.06   A 1.20 1.20 0.0 0 1 311.05 13.06   L 308.89 10.89   A 2.71 2.70 -22.4 0 0 306.98 10.10   Q 279.13 10.19 264.19 10.14   C 260.71 10.13 256.78 15.01 254.94 17.38   A 2.60 2.58 -26.3 0 0 254.40 18.96   L 254.40 56.45   A 0.31 0.31 0.0 0 1 253.87 56.67"/>
<path stroke="#807600" stroke-opacity="0.996" vector-effect="non-scaling-stroke" d="   M 148.53 71.45   Q 147.23 72.51 145.59 74.86   Q 144.27 76.76 141.78 76.76   Q 122.48 76.73 111.51 76.64   A 1.58 1.57 84.0 0 1 109.99 75.40   L 109.97 75.32   A 1.04 1.03 -7.1 0 1 110.97 74.04   L 140.01 73.96   A 2.98 2.94 -67.3 0 0 142.10 73.09   L 148.66 66.52   A 0.65 0.64 68.6 0 0 148.86 66.05   L 148.86 22.33   A 2.89 2.84 -60.9 0 0 148.45 20.85   C 146.37 17.38 144.38 13.41 140.50 13.18   Q 139.72 13.13 109.17 13.12   A 3.14 3.11 -67.5 0 0 106.95 14.05   L 103.26 17.74   A 2.22 2.19 -22.5 0 0 102.60 19.31   L 102.60 65.98   A 2.40 2.39 -13.7 0 1 101.30 68.11   C 97.02 70.30 96.17 76.62 91.23 76.66   Q 78.06 76.77 59.47 76.67   A 1.59 1.58 -6.5 0 1 57.94 75.46   L 57.91 75.31   A 0.99 0.99 0.0 0 1 58.87 74.09   Q 79.70 73.94 89.49 74.00   C 94.01 74.03 94.52 69.20 98.34 67.82   Q 99.05 67.56 99.32 67.25   A 1.28 1.26 67.2 0 0 99.65 66.42   L 99.79 51.90   A 0.55 0.55 0.0 0 0 99.24 51.34   L 84.86 51.34   A 2.24 2.23 90.0 0 0 82.63 53.58   L 82.63 57.04   A 0.78 0.78 0.0 0 1 81.85 57.82   L 79.66 57.82   A 0.84 0.84 0.0 0 1 78.82 56.98   L 78.82 52.53   A 2.50 2.50 0.0 0 1 79.45 50.87   L 81.30 48.80   A 1.01 1.00 -69.1 0 1 82.05 48.46   L 99.11 48.46   A 0.71 0.70 -0.0 0 0 99.82 47.76   L 99.82 41.54   A 0.75 0.74 -0.0 0 0 99.07 40.80   L 84.38 40.80   A 1.17 1.17 0.0 0 1 83.45 40.34   L 82.93 39.68   A 0.87 0.86 71.0 0 1 83.61 38.28   L 99.21 38.28   A 0.54 0.54 0.0 0 0 99.75 37.74   L 99.75 19.31   A 2.26 2.24 22.9 0 0 99.10 17.73   L 95.44 14.08   A 3.19 3.17 -22.4 0 0 93.19 13.15   Q 76.53 13.15 59.63 13.09   C 54.19 13.07 51.32 16.26 47.98 20.50   Q 46.40 22.50 46.36 24.14   Q 46.09 36.10 46.20 59.59   C 46.22 64.77 45.91 67.26 49.53 70.26   Q 54.01 73.97 56.68 78.29   A 1.78 1.78 0.0 0 0 58.20 79.14   Q 78.92 79.07 91.24 79.12   C 96.48 79.14 98.22 75.69 101.72 71.10   A 0.76 0.76 0.0 0 1 102.93 71.10   L 108.33 78.04   A 2.73 2.73 0.0 0 0 110.48 79.09   L 143.96 79.09   A 2.20 2.18 22.3 0 0 145.51 78.45   L 148.40 75.57   A 1.69 1.67 71.2 0 0 148.88 74.58   L 149.21 71.82   A 0.42 0.41 -16.2 0 0 148.53 71.45"/>
<path stroke="#807600" stroke-opacity="0.996" vector-effect="non-scaling-stroke" d="   M 197.66 75.55   Q 197.48 75.57 196.73 76.28   A 1.52 1.52 0.0 0 1 195.68 76.70   L 154.42 76.70   A 0.86 0.86 0.0 0 1 153.56 75.84   L 153.56 75.00   A 0.95 0.94 0.0 0 1 154.51 74.06   Q 188.14 74.01 193.99 74.06   Q 196.41 74.08 196.41 72.02   Q 196.42 68.15 196.36 59.12   A 1.47 1.46 -0.2 0 0 194.89 57.67   L 168.13 57.67   A 0.53 0.53 0.0 0 1 167.60 57.14   L 167.60 17.22   A 2.15 1.83 40.4 0 0 167.50 16.60   Q 166.38 13.18 162.53 13.12   C 158.03 13.05 151.79 12.02 150.09 16.21   A 1.42 1.38 -44.1 0 0 150.06 17.17   Q 151.11 20.21 151.11 21.00   Q 150.98 47.54 151.17 75.78   Q 151.19 77.66 153.27 78.85   A 1.94 1.94 0.0 0 0 154.24 79.11   Q 192.11 79.06 194.37 79.10   C 196.22 79.13 198.36 78.34 198.28 76.09   A 0.56 0.56 0.0 0 0 197.66 75.55"/>
<path stroke="#807600" stroke-opacity="0.996" vector-effect="non-scaling-stroke" d="   M 217.96 57.49   L 217.96 16.63   A 1.47 1.37 -61.4 0 0 217.78 15.93   Q 216.36 13.43 214.53 13.25   Q 210.81 12.89 202.99 13.27   Q 200.28 13.40 200.26 16.50   Q 200.14 37.00 200.17 73.89   C 200.17 76.57 201.03 77.89 203.12 78.94   A 1.53 1.51 -31.4 0 0 203.80 79.10   L 252.32 79.10   A 1.56 1.49 -63.1 0 0 253.26 78.77   Q 254.76 77.57 255.22 75.24   A 0.69 0.69 0.0 0 0 254.03 74.65   L 252.48 76.39   A 0.95 0.94 20.9 0 1 251.78 76.70   L 203.41 76.70   A 0.96 0.96 0.0 0 1 202.45 75.74   L 202.45 74.94   A 0.88 0.88 0.0 0 1 203.33 74.06   L 250.00 74.06   A 2.42 2.42 0.0 0 0 252.42 71.62   Q 252.38 63.69 252.45 62.01   C 252.53 60.02 251.73 57.68 249.75 57.67   Q 226.72 57.62 218.17 57.69   A 0.20 0.20 0.0 0 1 217.96 57.49"/>
<path stroke="#807600" stroke-opacity="0.996" vector-effect="non-scaling-stroke" d="   M 313.64 75.60   L 312.89 76.34   A 1.29 1.28 -67.6 0 1 311.97 76.73   L 297.85 76.73   A 0.62 0.61 -90.0 0 1 297.24 76.11   L 297.24 74.66   A 0.63 0.63 0.0 0 1 297.87 74.03   L 310.80 74.03   A 2.02 2.02 0.0 0 0 312.82 72.01   L 312.82 20.60   A 1.54 1.49 23.2 0 0 312.37 19.53   L 306.89 14.05   A 2.94 2.92 67.4 0 0 304.82 13.19   Q 273.01 13.12 268.00 13.05   C 263.85 12.99 261.05 16.85 258.77 19.78   C 257.42 21.49 257.39 23.03 257.39 25.25   Q 257.45 39.36 257.42 75.81   A 1.33 1.29 -68.2 0 0 257.80 76.74   L 259.91 78.85   A 1.00 0.95 -21.5 0 0 260.60 79.13   L 275.40 79.13   A 0.92 0.92 0.0 0 0 276.21 78.65   L 277.98 75.51   A 0.72 0.72 0.0 0 0 277.51 74.46   L 277.28 74.41   A 0.68 0.67 16.5 0 0 276.59 74.78   L 275.90 76.16   A 0.99 0.99 0.0 0 1 275.01 76.72   L 260.70 76.72   A 0.92 0.91 -90.0 0 1 259.79 75.80   L 259.79 74.91   A 0.84 0.83 90.0 0 1 260.62 74.07   L 273.87 74.07   A 2.34 2.34 0.0 0 0 276.21 71.73   L 276.21 54.26   A 0.53 0.52 90.0 0 1 276.73 53.73   L 293.39 53.73   A 0.44 0.43 -90.0 0 1 293.82 54.17   L 293.82 75.35   A 1.29 1.09 40.0 0 0 293.89 75.75   Q 295.06 79.17 298.48 79.15   Q 311.89 79.07 312.27 79.04   A 1.78 1.70 23.3 0 0 313.18 78.70   Q 314.29 77.84 314.35 75.91   A 0.42 0.41 68.3 0 0 313.64 75.60"/>
<path stroke="#807600" stroke-opacity="0.996" vector-effect="non-scaling-stroke" d="   M 376.58 71.00   L 383.63 78.06   A 3.43 3.41 -22.4 0 0 386.05 79.06   L 425.85 79.06   A 2.79 2.68 28.6 0 0 427.25 78.68   Q 430.48 76.76 432.22 73.22   Q 432.87 71.91 434.58 72.07   A 0.61 0.61 0.0 0 1 435.13 72.77   Q 434.58 76.10 437.79 78.64   A 1.84 1.80 -24.9 0 0 438.89 79.03   Q 443.23 79.12 449.54 79.03   C 452.24 78.99 453.10 78.05 453.98 75.51   A 0.59 0.59 0.0 0 0 452.98 74.93   L 451.57 76.51   A 0.81 0.80 -68.4 0 1 450.98 76.77   L 439.18 76.77   A 1.21 1.20 0.0 0 1 437.97 75.57   L 437.97 74.98   A 0.92 0.92 0.0 0 1 438.89 74.06   L 450.09 74.06   A 2.05 2.04 -0.0 0 0 452.14 72.02   L 452.14 54.23   A 0.59 0.59 0.0 0 1 452.73 53.64   L 466.08 53.64   A 0.71 0.71 0.0 0 1 466.79 54.35   L 466.79 75.53   A 1.06 1.03 23.1 0 0 467.10 76.27   L 469.47 78.64   A 1.44 1.42 67.3 0 0 470.48 79.06   Q 477.26 79.04 481.84 79.08   C 484.19 79.10 485.54 78.08 486.29 76.22   A 0.45 0.45 0.0 0 0 485.61 75.68   L 484.53 76.44   A 1.92 1.90 27.4 0 1 483.44 76.78   L 470.74 76.78   A 0.88 0.88 0.0 0 1 469.86 75.90   L 469.86 74.83   A 0.81 0.81 0.0 0 1 470.67 74.02   L 482.55 74.02   A 2.01 2.00 -0.0 0 0 484.56 72.02   L 484.56 20.91   A 1.37 1.34 -65.9 0 0 484.23 20.02   C 482.37 17.86 481.56 14.90 478.82 13.57   A 1.84 1.76 -30.8 0 0 478.03 13.39   L 441.87 13.22   A 1.95 1.90 24.6 0 0 440.64 13.66   Q 437.25 16.43 435.28 20.57   A 2.00 1.86 -34.1 0 0 435.09 21.40   Q 435.20 40.13 435.18 64.35   C 435.18 65.87 434.87 68.55 433.64 69.49   Q 430.47 71.92 427.47 75.42   A 3.95 3.94 20.3 0 1 424.48 76.79   L 387.55 76.79   A 3.13 3.13 0.0 0 1 385.14 75.66   C 383.80 74.01 379.96 71.38 379.40 68.73   A 0.57 0.56 -73.6 0 1 380.35 68.21   L 385.49 73.35   A 2.39 2.36 67.5 0 0 387.18 74.06   L 422.88 74.06   A 3.32 3.30 18.4 0 0 425.52 72.75   Q 428.15 69.27 431.46 67.32   A 1.31 1.28 -15.7 0 0 432.10 66.21   Q 432.10 39.97 432.21 22.00   Q 432.24 17.35 428.23 13.65   A 1.33 1.31 -22.9 0 0 427.32 13.29   Q 406.00 13.39 385.94 13.22   C 382.04 13.18 379.26 17.34 377.49 20.25   A 2.49 2.46 -29.5 0 0 377.12 21.55   L 377.12 38.67   A 1.25 1.24 -24.8 0 1 376.82 39.48   L 373.64 43.05   A 1.08 1.04 -70.2 0 1 372.93 43.40   Q 371.33 43.53 370.03 42.96   A 1.65 1.39 -68.2 0 1 369.37 40.97   Q 370.11 38.99 372.99 37.42   A 1.76 1.76 0.0 0 0 373.91 35.96   Q 374.34 27.17 374.03 20.76   C 373.90 18.09 369.84 14.47 368.05 13.45   A 0.90 0.88 -30.2 0 0 367.62 13.34   Q 334.07 13.36 318.83 13.19   Q 317.25 13.17 315.66 15.44   A 0.42 0.39 -28.8 0 0 315.58 15.68   L 315.58 75.11   A 1.38 1.36 -68.2 0 0 315.99 76.09   L 318.53 78.63   A 1.51 1.47 66.9 0 0 319.58 79.07   L 366.42 79.07   A 2.78 2.75 22.1 0 0 368.39 78.25   L 375.64 71.00   A 0.67 0.67 0.0 0 1 376.58 71.00"/>
<path stroke="#807600" stroke-opacity="0.996" vector-effect="non-scaling-stroke" d="   M 538.98 74.98   L 537.62 76.50   A 0.86 0.83 19.3 0 1 536.97 76.80   L 523.24 76.80   A 0.68 0.68 0.0 0 1 522.56 76.12   L 522.56 74.71   A 0.69 0.69 0.0 0 1 523.25 74.02   L 535.93 74.02   A 2.19 2.19 0.0 0 0 538.12 71.83   L 538.12 50.15   A 1.17 1.16 90.0 0 1 539.28 48.98   L 539.93 48.98   A 1.42 1.41 -90.0 0 1 541.34 50.40   L 541.34 70.99   A 2.00 1.98 35.3 0 0 541.46 71.67   Q 542.24 73.96 542.37 76.61   A 2.60 2.59 88.6 0 0 544.96 79.08   L 581.36 79.08   A 2.50 2.44 28.7 0 0 582.65 78.72   Q 584.11 77.85 585.64 75.54   A 1.05 1.05 0.0 0 0 585.73 74.55   L 585.60 74.11   A 1.45 1.43 59.8 0 1 585.97 72.68   L 592.44 66.20   A 2.77 2.75 -22.6 0 0 593.25 64.25   L 593.25 23.85   A 3.94 3.91 -67.3 0 0 592.14 21.11   Q 589.51 18.37 586.09 15.17   Q 584.09 13.29 582.75 13.30   Q 559.58 13.34 544.05 13.29   Q 542.57 13.28 541.32 15.20   A 1.47 1.44 -29.4 0 0 541.08 16.03   C 541.41 30.30 541.74 37.90 540.59 47.26   A 0.58 0.57 -71.6 0 1 539.74 47.69   Q 537.67 46.54 535.95 46.42   A 0.71 0.71 0.0 0 1 535.30 45.84   C 534.75 42.64 537.15 42.89 537.91 41.10   Q 538.22 40.37 538.30 38.49   Q 538.32 38.02 538.37 21.30   C 538.38 19.63 536.72 19.85 535.90 18.73   Q 533.65 15.67 531.94 13.77   A 1.44 1.43 68.9 0 0 530.87 13.29   Q 507.67 13.37 491.52 13.25   Q 490.32 13.24 488.19 15.59   A 1.11 1.11 0.0 0 0 487.89 16.35   L 487.89 75.38   A 1.36 1.33 -59.3 0 0 488.04 76.00   Q 488.80 77.46 490.32 78.65   A 2.00 1.98 63.7 0 0 491.54 79.07   L 505.57 79.07   A 0.90 0.87 20.9 0 0 506.22 78.79   Q 507.83 77.07 508.37 75.23   A 0.40 0.40 0.0 0 0 507.99 74.72   L 507.57 74.72   A 0.59 0.58 -75.0 0 0 507.06 75.02   L 506.39 76.22   A 1.09 1.08 -75.5 0 1 505.44 76.79   L 491.16 76.79   A 0.82 0.81 -90.0 0 1 490.35 75.97   L 490.35 74.81   A 0.73 0.73 0.0 0 1 491.08 74.08   L 504.34 74.08   A 2.39 2.38 90.0 0 0 506.72 71.69   L 506.72 54.10   A 0.43 0.42 0.0 0 1 507.15 53.68   L 520.03 53.68   A 0.68 0.68 0.0 0 1 520.71 54.35   Q 520.88 65.27 520.66 75.00   C 520.60 77.58 520.99 79.07 523.78 79.07   Q 535.15 79.06 535.74 79.08   C 538.52 79.17 539.45 77.59 539.69 75.29   A 0.41 0.41 0.0 0 0 538.98 74.98"/>
<path stroke="#005278" vector-effect="non-scaling-stroke" d="   M 62.77 59.45   L 62.77 28.07   A 0.29 0.29 0.0 0 1 63.06 27.78   L 83.50 27.78   A 0.45 0.45 0.0 0 1 83.95 28.23   L 83.95 34.77   A 0.64 0.64 0.0 0 0 84.59 35.41   L 96.78 35.41   A 0.44 0.43 -90.0 0 0 97.21 34.97   L 97.21 20.12   A 1.22 1.21 0.0 0 0 95.99 18.91   L 94.53 18.91   A 0.67 0.66 90.0 0 1 93.87 18.24   L 93.87 16.31   A 1.12 1.12 0.0 0 0 92.75 15.19   Q 74.89 15.13 59.50 15.20   Q 56.57 15.22 54.88 16.89   Q 52.22 19.49 49.50 22.45   A 2.67 2.65 67.0 0 0 48.80 24.20   Q 48.44 41.80 48.70 62.25   Q 48.74 65.74 50.89 65.59   A 0.74 0.73 83.7 0 1 51.67 66.22   Q 52.00 68.33 54.38 68.89   A 1.28 1.26 1.1 0 1 55.33 69.87   Q 55.53 70.86 56.00 71.37   A 1.41 1.38 -21.1 0 0 57.02 71.81   Q 72.91 71.93 85.00 71.85   Q 88.38 71.82 89.36 71.42   A 3.58 3.53 -78.5 0 0 90.51 70.65   L 96.65 64.57   A 1.98 1.98 0.0 0 0 97.23 63.17   L 97.23 54.07   A 0.56 0.56 0.0 0 0 96.67 53.51   L 86.20 53.51   A 1.12 1.11 0.0 0 0 85.08 54.62   L 85.08 59.39   A 0.70 0.69 -90.0 0 1 84.39 60.09   L 63.41 60.09   A 0.64 0.64 0.0 0 1 62.77 59.45"/>
<path stroke="#005278" vector-effect="non-scaling-stroke" d="   M 107.30 18.53   L 105.69 18.91   A 1.00 1.00 0.0 0 0 104.92 19.88   L 105.00 64.00   A 1.48 1.47 -66.3 0 0 105.38 64.99   Q 105.78 65.45 106.82 65.49   A 0.95 0.94 -9.1 0 1 107.68 66.10   C 108.11 67.23 108.76 68.23 109.78 68.86   Q 110.88 69.55 110.97 70.67   A 1.15 1.14 88.0 0 0 112.08 71.72   Q 119.49 71.88 139.10 71.84   A 1.52 1.37 1.6 0 0 140.61 70.55   Q 140.63 70.20 141.17 69.36   A 1.39 1.34 -80.7 0 1 141.93 68.79   Q 143.85 68.23 144.02 66.18   A 0.82 0.81 -87.7 0 1 144.83 65.42   L 145.54 65.42   A 1.34 1.33 0.0 0 0 146.88 64.09   L 146.88 23.51   A 2.80 2.77 22.7 0 0 146.06 21.54   L 143.49 18.98   A 1.98 1.93 73.9 0 0 142.54 18.44   Q 140.90 18.03 141.03 16.96   A 1.77 1.51 3.3 0 0 139.28 15.28   Q 127.99 15.03 109.28 15.24   A 1.28 1.27 87.5 0 0 108.03 16.61   Q 108.13 17.94 107.55 18.41   A 0.59 0.58 18.9 0 1 107.30 18.53"/>
<path stroke="#807600" stroke-opacity="0.996" vector-effect="non-scaling-stroke" d="   M 65.27 57.33   A 0.48 0.48 0.0 0 0 65.75 57.81   L 67.67 57.81   A 0.48 0.48 0.0 0 0 68.15 57.33   L 68.15 33.38   A 0.48 0.48 0.0 0 1 68.63 32.90   L 80.99 32.90   A 0.48 0.48 0.0 0 0 81.47 32.42   L 81.47 30.50   A 0.48 0.48 0.0 0 0 80.99 30.02   L 65.75 30.02   A 0.48 0.48 0.0 0 0 65.27 30.50   L 65.27 57.33"/>
<path stroke="#804d00" vector-effect="non-scaling-stroke" d="   M 104.3026 68.0943   A 2.47 0.84 -134.7 0 0 105.4429 70.4409   A 2.47 0.84 -134.7 0 0 107.7774 71.6057   A 2.47 0.84 -134.7 0 0 106.6371 69.2591   A 2.47 0.84 -134.7 0 0 104.3026 68.0943"/>
<path stroke="#005278" vector-effect="non-scaling-stroke" d="   M 193.04 71.91   A 0.92 0.92 0.0 0 0 193.96 70.99   L 193.96 60.95   A 0.92 0.92 0.0 0 0 193.04 60.03   L 166.08 60.03   A 0.92 0.92 0.0 0 1 165.16 59.11   L 165.16 16.16   A 0.92 0.92 0.0 0 0 164.24 15.24   L 154.30 15.24   A 0.92 0.92 0.0 0 0 153.38 16.16   L 153.38 70.99   A 0.92 0.92 0.0 0 0 154.30 71.91   L 193.04 71.91"/>
<path stroke="#005278" vector-effect="non-scaling-stroke" d="   M 215.97 60.04   A 0.77 0.77 0.0 0 1 215.20 59.27   L 215.20 15.98   A 0.77 0.77 0.0 0 0 214.43 15.21   L 203.36 15.21   A 0.77 0.77 0.0 0 0 202.59 15.98   L 202.59 71.12   A 0.77 0.77 0.0 0 0 203.36 71.89   L 248.92 71.89   A 0.77 0.77 0.0 0 0 249.69 71.12   L 249.69 60.81   A 0.77 0.77 0.0 0 0 248.92 60.04   L 215.97 60.04"/>
<path stroke="#005278" vector-effect="non-scaling-stroke" d="   M 309.58 22.19   L 308.80 22.19   A 0.77 0.76 -0.0 0 1 308.03 21.43   L 308.03 19.25   A 0.61 0.61 0.0 0 0 307.42 18.64   L 305.85 18.64   A 0.57 0.57 0.0 0 1 305.28 18.09   Q 305.22 16.98 305.33 16.72   A 1.17 1.07 10.5 0 0 304.22 15.24   Q 285.39 15.05 267.27 15.22   A 2.14 2.12 -78.1 0 0 265.34 16.49   Q 264.76 17.82 263.36 18.68   A 3.04 3.01 85.5 0 0 262.18 20.08   Q 261.69 21.29 260.72 22.37   A 3.38 3.38 0.0 0 0 259.87 24.61   L 259.87 71.41   A 0.49 0.49 0.0 0 0 260.36 71.90   L 272.88 71.90   A 0.49 0.48 -90.0 0 0 273.36 71.41   L 273.36 51.58   A 0.61 0.61 0.0 0 1 273.97 50.97   L 296.63 50.97   A 0.57 0.57 0.0 0 1 297.20 51.54   L 297.20 71.18   A 0.75 0.74 0.0 0 0 297.95 71.92   L 309.97 71.92   A 0.93 0.93 0.0 0 0 310.90 70.99   L 310.90 23.51   A 1.32 1.32 0.0 0 0 309.58 22.19"/>
<path stroke="#804d00" vector-effect="non-scaling-stroke" d="   M 319.81 71.86   L 361.86 71.86   A 3.11 3.11 0.0 0 0 364.05 70.96   L 371.04 63.97   A 1.06 1.06 0.0 0 0 371.35 63.22   L 371.35 46.89   A 1.21 1.20 -0.0 0 0 370.14 45.69   L 367.60 45.69   A 0.87 0.87 0.0 0 1 366.73 44.82   L 366.73 44.15   A 0.67 0.67 0.0 0 0 365.96 43.49   Q 364.70 43.67 364.56 43.59   A 2.19 2.12 -40.6 0 1 364.91 39.79   Q 364.99 39.75 366.01 39.74   Q 367.48 39.73 367.15 37.49   A 0.63 0.63 0.0 0 1 367.88 36.77   Q 369.92 37.09 370.86 36.07   A 1.62 1.61 66.7 0 0 371.28 35.01   Q 371.48 26.95 371.18 20.50   C 371.08 18.31 370.03 18.28 368.13 18.50   A 0.74 0.74 0.0 0 1 367.31 17.76   L 367.31 16.18   A 0.94 0.94 0.0 0 0 366.37 15.24   L 320.00 15.24   A 0.72 0.71 -90.0 0 0 319.29 15.96   L 319.29 71.35   A 0.52 0.51 -0.0 0 0 319.81 71.86"/>
<path stroke="#804d00" vector-effect="non-scaling-stroke" d="   M 427.50 21.72   L 427.50 19.00   A 0.52 0.52 0.0 0 0 426.98 18.48   L 425.18 18.48   A 0.63 0.62 0.0 0 1 424.55 17.86   L 424.55 16.05   A 0.79 0.79 0.0 0 0 423.76 15.26   L 386.63 15.26   A 0.73 0.72 -12.6 0 0 385.97 16.29   Q 386.47 17.37 385.89 18.01   A 1.35 1.33 -70.0 0 1 384.98 18.44   Q 382.69 18.56 383.43 21.37   A 0.78 0.77 -6.3 0 1 382.65 22.34   Q 380.73 22.26 380.71 23.49   Q 380.47 43.83 380.74 64.50   A 0.79 0.79 0.0 0 0 381.54 65.28   Q 382.17 65.27 382.86 65.80   A 1.26 1.24 11.5 0 1 383.31 66.47   Q 383.82 68.33 385.70 68.85   Q 386.61 69.10 386.57 70.07   Q 386.53 70.99 387.38 71.58   A 1.62 1.60 -27.5 0 0 388.29 71.86   L 422.81 71.86   A 1.47 1.47 0.0 0 0 424.27 70.53   C 424.46 68.63 426.18 68.33 426.85 66.52   Q 427.31 65.30 428.81 65.33   A 1.07 1.07 0.0 0 0 429.90 64.26   Q 430.00 43.41 429.91 23.00   Q 429.90 21.99 428.32 22.36   A 0.66 0.66 0.0 0 1 427.50 21.72"/>
<path stroke="#804d00" vector-effect="non-scaling-stroke" d="   M 471.13 71.88   L 481.91 71.88   A 0.66 0.65 -90.0 0 0 482.56 71.22   L 482.56 22.98   A 0.76 0.75 -90.0 0 0 481.81 22.22   L 479.58 22.22   A 0.29 0.29 0.0 0 1 479.29 21.93   L 479.29 19.02   A 0.46 0.46 0.0 0 0 478.83 18.56   L 476.96 18.56   A 0.89 0.89 0.0 0 1 476.10 17.45   Q 476.39 16.34 476.36 15.89   A 0.58 0.58 0.0 0 0 475.78 15.35   L 443.50 15.35   A 0.57 0.57 0.0 0 0 442.99 16.17   Q 443.27 16.72 443.19 17.94   A 0.58 0.58 0.0 0 1 442.61 18.48   L 441.02 18.48   A 0.74 0.73 -90.0 0 0 440.29 19.22   L 440.29 21.31   A 1.06 1.05 -5.7 0 1 439.44 22.34   L 438.94 22.44   A 1.13 1.13 0.0 0 0 438.03 23.55   L 438.03 71.48   A 0.41 0.41 0.0 0 0 438.44 71.89   L 449.09 71.89   A 0.63 0.62 0.0 0 0 449.72 71.27   L 449.72 51.19   A 0.41 0.41 0.0 0 1 450.13 50.78   L 469.73 50.78   A 0.74 0.74 0.0 0 1 470.47 51.52   L 470.47 71.22   A 0.66 0.66 0.0 0 0 471.13 71.88"/>
<path stroke="#7e5f00" stroke-opacity="0.996" vector-effect="non-scaling-stroke" d="   M 320.05 76.81   L 365.07 76.81   A 4.71 4.71 0.0 0 0 368.40 75.43   L 376.56 67.27   A 1.39 1.38 69.9 0 0 376.96 66.40   Q 377.77 55.35 377.13 44.79   A 0.87 0.87 0.0 0 0 376.26 43.97   L 375.84 43.97   A 1.97 1.96 90.0 0 0 373.88 45.94   L 373.88 64.90   A 1.57 1.57 0.0 0 1 373.31 66.11   Q 369.44 69.28 366.80 72.27   C 365.47 73.78 364.07 74.06 362.25 74.05   Q 354.43 74.02 320.11 74.05   A 0.90 0.90 0.0 0 0 319.21 74.95   L 319.21 75.96   A 0.85 0.84 -90.0 0 0 320.05 76.81"/>
<path stroke="#804d00" vector-effect="non-scaling-stroke" d="   M 533.15 43.10   L 533.15 41.39   A 0.98 0.97 -86.8 0 1 534.23 40.42   Q 535.45 40.56 535.99 40.07   Q 536.37 39.72 536.40 38.38   Q 536.57 30.43 536.36 22.94   A 0.79 0.77 -84.8 0 0 535.76 22.20   Q 534.96 22.02 533.89 22.31   A 0.57 0.56 -7.8 0 1 533.17 21.77   L 533.17 19.40   A 0.66 0.66 0.0 0 0 532.51 18.74   L 530.86 18.74   A 0.69 0.69 0.0 0 1 530.18 17.94   Q 530.42 16.43 530.28 15.82   A 0.75 0.75 0.0 0 0 529.55 15.25   L 492.55 15.25   A 1.05 1.04 -0.0 0 0 491.50 16.29   L 491.50 71.47   A 0.43 0.43 0.0 0 0 491.93 71.90   L 503.75 71.90   A 0.77 0.76 90.0 0 0 504.51 71.13   L 504.51 51.32   A 0.37 0.37 0.0 0 1 504.88 50.95   L 523.65 50.95   A 0.57 0.56 0.0 0 1 524.22 51.51   L 524.22 71.38   A 0.50 0.50 0.0 0 0 524.72 71.88   L 535.42 71.88   A 0.60 0.60 0.0 0 0 536.02 71.28   L 536.02 49.82   A 0.67 0.66 -0.0 0 0 535.35 49.16   L 533.37 49.16   A 0.63 0.62 -90.0 0 1 532.75 48.53   L 532.75 46.73   A 0.83 0.83 0.0 0 0 531.92 45.90   L 530.53 45.90   A 0.97 0.97 0.0 0 1 529.56 44.93   L 529.56 44.41   A 0.64 0.63 -83.9 0 1 530.33 43.78   Q 531.30 43.98 532.59 43.76   A 0.67 0.67 0.0 0 0 533.15 43.10"/>
<path stroke="#804d00" vector-effect="non-scaling-stroke" d="   M 587.10 21.57   C 587.48 19.48 586.95 18.54 585.02 18.56   Q 584.15 18.57 583.87 18.56   A 0.62 0.62 0.0 0 1 583.26 17.94   L 583.26 16.49   A 1.22 1.21 90.0 0 0 582.05 15.27   L 545.94 15.27   A 0.76 0.76 0.0 0 0 545.18 16.03   L 545.18 71.28   A 0.60 0.60 0.0 0 0 545.78 71.88   L 582.89 71.88   A 0.91 0.91 0.0 0 0 583.80 70.97   L 583.80 69.36   A 0.73 0.73 0.0 0 1 584.49 68.63   L 585.99 68.55   A 1.38 1.35 -72.2 0 0 587.01 68.01   Q 587.39 67.52 587.33 66.11   A 0.69 0.68 -88.2 0 1 588.09 65.39   Q 590.38 65.63 590.80 64.52   A 1.09 0.92 -40.0 0 0 590.86 64.18   Q 590.92 54.68 590.85 23.69   A 1.44 1.36 82.4 0 0 589.11 22.28   Q 588.84 22.37 587.60 22.25   A 0.57 0.57 0.0 0 1 587.10 21.57"/>
<path stroke="#7e5f00" stroke-opacity="0.996" vector-effect="non-scaling-stroke" d="   M 583.2692 74.9365   A 0.93 0.93 0.0 0 0 582.3375 74.0081   L 545.8176 74.0719   A 0.93 0.93 0.0 0 0 544.8892 75.0035   L 544.8908 75.9235   A 0.93 0.93 0.0 0 0 545.8225 76.8519   L 582.3424 76.7881   A 0.93 0.93 0.0 0 0 583.2708 75.8565   L 583.2692 74.9365"/>
<path stroke="#005278" vector-effect="non-scaling-stroke" d="   M 135.84 28.17   A 0.40 0.40 0.0 0 0 135.44 27.77   L 116.18 27.77   A 0.40 0.40 0.0 0 0 115.78 28.17   L 115.78 59.69   A 0.40 0.40 0.0 0 0 116.18 60.09   L 135.44 60.09   A 0.40 0.40 0.0 0 0 135.84 59.69   L 135.84 28.17"/>
<path stroke="#005278" vector-effect="non-scaling-stroke" d="   M 297.24 28.24   A 0.52 0.52 0.0 0 0 296.72 27.72   L 273.86 27.72   A 0.52 0.52 0.0 0 0 273.34 28.24   L 273.34 38.66   A 0.52 0.52 0.0 0 0 273.86 39.18   L 296.72 39.18   A 0.52 0.52 0.0 0 0 297.24 38.66   L 297.24 28.24"/>
<path stroke="#804d00" vector-effect="non-scaling-stroke" d="   M 357.4130 27.4779   A 0.33 0.33 0.0 0 0 357.0818 27.1491   L 333.6020 27.2310   A 0.33 0.33 0.0 0 0 333.2731 27.5622   L 333.3070 37.2621   A 0.33 0.33 0.0 0 0 333.6382 37.5909   L 357.1180 37.5090   A 0.33 0.33 0.0 0 0 357.4469 37.1778   L 357.4130 27.4779"/>
<path stroke="#804d00" vector-effect="non-scaling-stroke" d="   M 357.46 49.29   A 0.56 0.56 0.0 0 0 356.90 48.73   L 333.82 48.73   A 0.56 0.56 0.0 0 0 333.26 49.29   L 333.26 59.57   A 0.56 0.56 0.0 0 0 333.82 60.13   L 356.90 60.13   A 0.56 0.56 0.0 0 0 357.46 59.57   L 357.46 49.29"/>
<path stroke="#804d00" vector-effect="non-scaling-stroke" d="   M 417.42 27.62   A 0.43 0.43 0.0 0 0 416.99 27.19   L 393.67 27.19   A 0.43 0.43 0.0 0 0 393.24 27.62   L 393.24 59.70   A 0.43 0.43 0.0 0 0 393.67 60.13   L 416.99 60.13   A 0.43 0.43 0.0 0 0 417.42 59.70   L 417.42 27.62"/>
<path stroke="#804d00" vector-effect="non-scaling-stroke" d="   M 470.4106 27.6337   A 0.57 0.57 0.0 0 0 469.8386 27.0657   L 450.1787 27.1344   A 0.57 0.57 0.0 0 0 449.6107 27.7063   L 449.6494 38.7863   A 0.57 0.57 0.0 0 0 450.2214 39.3543   L 469.8813 39.2856   A 0.57 0.57 0.0 0 0 470.4493 38.7137   L 470.4106 27.6337"/>
<path stroke="#804d00" vector-effect="non-scaling-stroke" d="   M 524.1305 27.6829   A 0.64 0.64 0.0 0 0 523.4894 27.0440   L 505.1094 27.0760   A 0.64 0.64 0.0 0 0 504.4705 27.7172   L 504.4895 38.6171   A 0.64 0.64 0.0 0 0 505.1306 39.2560   L 523.5106 39.2240   A 0.64 0.64 0.0 0 0 524.1495 38.5828   L 524.1305 27.6829"/>
<path stroke="#804d00" vector-effect="non-scaling-stroke" d="   M 578.28 27.90   A 0.50 0.50 0.0 0 0 577.78 27.40   L 558.16 27.40   A 0.50 0.50 0.0 0 0 557.66 27.90   L 557.66 59.64   A 0.50 0.50 0.0 0 0 558.16 60.14   L 577.78 60.14   A 0.50 0.50 0.0 0 0 578.28 59.64   L 578.28 27.90"/>
<path stroke="#7e5f00" stroke-opacity="0.996" vector-effect="non-scaling-stroke" d="   M 353.96 30.21   A 0.62 0.62 0.0 0 0 353.34 29.59   L 336.70 29.59   A 0.62 0.62 0.0 0 0 336.08 30.21   L 336.08 35.83   A 0.62 0.62 0.0 0 0 336.70 36.45   L 338.89 36.45   A 0.62 0.62 0.0 0 0 339.51 35.83   L 339.51 34.04   A 0.62 0.62 0.0 0 1 340.13 33.42   L 353.34 33.42   A 0.62 0.62 0.0 0 0 353.96 32.80   L 353.96 30.21"/>
<path stroke="#7e5f00" stroke-opacity="0.996" vector-effect="non-scaling-stroke" d="   M 413.6760 30.1746   A 0.59 0.59 0.0 0 0 413.0850 29.5856   L 396.6050 29.6144   A 0.59 0.59 0.0 0 0 396.0161 30.2054   L 396.0640 57.6454   A 0.59 0.59 0.0 0 0 396.6550 58.2344   L 413.1350 58.2056   A 0.59 0.59 0.0 0 0 413.7239 57.6146   L 413.6760 30.1746"/>
<path stroke="#7e5f00" stroke-opacity="0.996" vector-effect="non-scaling-stroke" d="   M 459.47 29.40   Q 453.06 29.44 452.59 29.52   A 0.64 0.64 0.0 0 0 452.05 30.15   L 452.02 36.60   A 0.98 0.98 0.0 0 0 453.00 37.58   L 454.15 37.58   A 1.02 1.02 0.0 0 0 455.17 36.56   L 455.17 33.65   A 0.71 0.71 0.0 0 1 455.86 32.94   Q 456.41 32.92 459.50 32.90   Q 462.58 32.88 463.13 32.89   A 0.71 0.71 0.0 0 1 463.83 33.59   L 463.87 36.50   A 1.02 1.02 0.0 0 0 464.90 37.51   L 466.05 37.50   A 0.98 0.98 0.0 0 0 467.02 36.50   L 466.91 30.05   A 0.64 0.64 0.0 0 0 466.36 29.43   Q 465.89 29.36 459.47 29.40"/>
<path stroke="#7e5f00" stroke-opacity="0.996" vector-effect="non-scaling-stroke" d="   M 506.70 30.14   L 506.70 36.72   A 1.03 1.03 0.0 0 0 507.73 37.75   L 509.57 37.75   A 1.00 0.99 90.0 0 0 510.56 36.75   L 510.56 33.86   A 0.92 0.92 0.0 0 1 511.48 32.94   L 516.59 32.94   A 1.01 1.01 0.0 0 1 517.58 34.17   Q 517.16 36.08 517.51 36.88   A 1.79 1.79 0.0 0 0 520.94 36.15   L 520.89 29.85   A 0.51 0.51 0.0 0 0 520.38 29.35   L 507.50 29.35   A 0.80 0.79 0.0 0 0 506.70 30.14"/>
<path stroke="#7e5f00" stroke-opacity="0.996" vector-effect="non-scaling-stroke" d="   M 567.44 33.02   Q 570.76 33.02 571.18 33.03   A 0.55 0.55 0.0 0 1 571.72 33.58   L 571.72 57.31   A 0.90 0.90 0.0 0 0 572.62 58.21   L 573.86 58.21   A 0.96 0.95 0.0 0 0 574.82 57.26   L 574.82 30.20   A 0.48 0.48 0.0 0 0 574.35 29.72   Q 572.96 29.67 567.44 29.66   Q 561.93 29.65 560.53 29.70   A 0.48 0.48 0.0 0 0 560.07 30.18   L 559.99 57.24   A 0.96 0.95 0.2 0 0 560.95 58.19   L 562.19 58.20   A 0.90 0.90 0.0 0 0 563.09 57.30   L 563.16 33.57   A 0.55 0.55 0.0 0 1 563.70 33.02   Q 564.12 33.02 567.44 33.02"/>
<path stroke="#807600" stroke-opacity="0.996" vector-effect="non-scaling-stroke" d="   M 132.87 32.85   A 0.58 0.58 0.0 0 0 133.45 32.27   L 133.45 30.56   A 0.58 0.58 0.0 0 0 132.87 29.98   L 119.08 29.98   A 0.58 0.58 0.0 0 0 118.50 30.56   L 118.50 57.14   A 0.58 0.58 0.0 0 0 119.08 57.72   L 120.83 57.72   A 0.58 0.58 0.0 0 0 121.41 57.14   L 121.41 33.43   A 0.58 0.58 0.0 0 1 121.99 32.85   L 132.87 32.85"/>
<path stroke="#807600" stroke-opacity="0.996" vector-effect="non-scaling-stroke" d="   M 284.97 32.78   Q 289.78 32.79 290.37 32.79   A 0.65 0.65 0.0 0 1 291.02 33.44   L 291.02 36.27   A 0.94 0.94 0.0 0 0 291.96 37.21   L 292.88 37.21   A 0.85 0.85 0.0 0 0 293.73 36.36   L 293.73 30.57   A 0.57 0.56 89.8 0 0 293.17 30.00   Q 289.05 30.04 284.97 30.03   Q 280.90 30.02 276.78 29.96   A 0.57 0.56 -89.4 0 0 276.21 30.52   L 276.18 36.31   A 0.85 0.85 0.0 0 0 277.02 37.16   L 277.94 37.17   A 0.94 0.94 0.0 0 0 278.89 36.23   L 278.91 33.40   A 0.65 0.65 0.0 0 1 279.57 32.75   Q 280.16 32.77 284.97 32.78"/>
<path stroke="#7e5f00" stroke-opacity="0.996" vector-effect="non-scaling-stroke" d="   M 410.2424 33.2004   A 0.26 0.26 0.0 0 0 409.9815 32.9413   L 399.2416 32.9788   A 0.26 0.26 0.0 0 0 398.9825 33.2397   L 399.0576 54.7396   A 0.26 0.26 0.0 0 0 399.3185 54.9987   L 410.0584 54.9612   A 0.26 0.26 0.0 0 0 410.3175 54.7003   L 410.2424 33.2004"/>
<path stroke="#7e5f00" stroke-opacity="0.996" vector-effect="non-scaling-stroke" d="   M 336.78 58.14   L 338.58 58.14   A 1.02 1.01 -4.1 0 0 339.59 56.98   Q 339.43 55.92 339.53 55.32   A 0.62 0.62 0.0 0 1 340.14 54.81   L 352.59 54.81   A 1.59 1.59 0.0 0 0 354.18 53.22   L 354.18 52.63   A 1.41 1.40 0.0 0 0 352.77 51.23   L 336.86 51.23   A 0.76 0.76 0.0 0 0 336.10 51.99   L 336.10 57.47   A 0.68 0.67 -0.0 0 0 336.78 58.14"/>
</g>
<path xmlns="http://www.w3.org/2000/svg" fill="#010100" fill-opacity="0.996" d="   M 288.87 60.92   A 0.48 0.48 0.0 0 0 288.39 60.44   L 282.31 60.44   A 0.40 0.40 0.0 0 0 281.91 60.84   L 281.91 80.67   A 1.58 1.53 68.1 0 1 281.46 81.77   L 279.10 84.13   A 1.94 1.91 22.2 0 1 277.74 84.69   Q 269.79 84.74 259.75 84.66   Q 257.93 84.65 257.16 83.01   A 0.42 0.42 0.0 0 0 256.38 83.07   Q 256.10 84.04 255.61 84.48   A 0.93 0.93 0.0 0 1 255.01 84.70   L 202.20 84.70   A 1.92 1.90 -27.4 0 1 201.11 84.36   Q 200.98 84.28 200.81 83.98   A 0.75 0.75 0.0 0 0 199.61 83.87   L 199.23 84.30   A 1.24 1.24 0.0 0 1 198.31 84.71   Q 171.71 84.65 153.32 84.73   C 151.33 84.74 150.80 84.22 149.69 82.83   A 0.65 0.65 0.0 0 0 148.61 82.92   Q 148.07 83.93 147.27 84.43   A 2.58 2.53 28.4 0 1 145.91 84.82   L 108.75 84.58   A 4.33 4.28 -32.4 0 1 107.05 84.21   Q 105.17 83.34 103.46 80.86   A 1.52 1.52 0.0 0 0 101.13 80.64   L 97.93 83.84   A 2.95 2.93 22.4 0 1 95.85 84.70   L 56.24 84.70   A 0.90 0.89 66.9 0 1 55.62 84.45   L 43.36 72.09   A 7.45 7.20 -83.5 0 1 42.27 70.67   Q 41.80 69.84 41.76 66.27   Q 41.47 41.67 42.01 21.70   A 6.57 6.56 -27.5 0 1 43.10 18.25   Q 45.90 14.03 50.57 10.56   C 52.59 9.06 53.76 8.42 56.33 8.43   Q 75.61 8.50 96.23 8.49   A 1.55 1.55 0.0 0 1 97.09 8.75   Q 99.69 10.52 100.75 12.11   A 0.73 0.73 0.0 0 0 101.91 12.19   L 104.89 8.85   A 1.10 1.07 19.9 0 1 105.71 8.48   L 144.41 8.48   A 0.73 0.71 -21.3 0 1 144.93 8.70   L 147.32 11.08   A 0.60 0.60 0.0 0 0 148.20 11.06   L 150.28 8.72   A 0.71 0.70 20.5 0 1 150.81 8.48   L 166.24 8.48   A 1.41 1.38 65.5 0 1 167.17 8.84   L 172.71 13.77   A 2.28 2.26 20.9 0 1 173.48 15.47   L 173.48 52.98   A 0.70 0.70 0.0 0 0 174.18 53.68   L 195.34 53.68   A 0.58 0.58 0.0 0 0 195.92 53.10   L 195.92 13.28   A 2.89 2.88 -14.2 0 1 197.44 10.74   Q 198.88 9.97 199.52 9.05   A 1.27 1.27 0.0 0 1 200.56 8.51   L 216.36 8.51   A 0.83 0.79 65.8 0 1 216.92 8.74   L 218.40 10.23   A 0.69 0.66 -17.9 0 0 218.79 10.42   Q 219.71 10.53 219.91 11.38   A 1.08 1.05 -79.5 0 0 220.36 12.05   L 223.43 14.14   A 1.25 1.24 -72.7 0 1 223.96 15.16   L 223.96 53.16   A 0.51 0.51 0.0 0 0 224.47 53.67   L 252.63 53.67   A 0.51 0.51 0.0 0 0 253.14 53.16   L 253.14 18.08   A 2.29 2.29 0.0 0 1 253.81 16.46   L 261.18 9.09   A 2.13 2.12 22.4 0 1 262.68 8.47   L 307.07 8.47   A 1.56 1.46 -30.9 0 1 307.71 8.61   Q 310.25 9.72 311.37 11.62   A 0.70 0.70 0.0 0 0 312.49 11.73   L 315.03 8.88   A 1.14 1.14 0.0 0 1 315.88 8.50   L 370.96 8.50   A 0.90 0.87 64.3 0 1 371.53 8.71   L 376.19 12.87   A 0.47 0.46 -46.4 0 0 376.82 12.85   L 380.71 8.96   A 1.56 1.53 21.7 0 1 381.78 8.51   Q 402.69 8.45 429.70 8.53   A 3.32 2.69 76.8 0 1 432.37 10.60   Q 432.91 11.90 434.04 12.50   A 0.85 0.84 34.0 0 0 435.06 12.31   L 438.03 8.98   A 1.44 1.43 -68.9 0 1 439.10 8.50   L 480.09 8.50   A 1.26 1.22 -21.9 0 1 480.97 8.86   L 483.97 11.86   A 0.91 0.90 -53.0 0 0 485.41 11.65   Q 486.10 10.41 487.40 9.15   Q 488.08 8.49 490.29 8.49   Q 517.15 8.49 533.48 8.54   A 1.14 1.12 69.6 0 1 534.34 8.94   C 534.71 9.40 534.79 10.15 535.61 10.36   Q 536.44 10.58 536.77 11.44   A 0.57 0.56 -34.6 0 0 537.72 11.61   L 540.12 8.91   A 1.21 1.21 0.0 0 1 541.02 8.51   L 586.32 8.51   A 0.83 0.82 66.7 0 1 586.89 8.74   L 598.71 19.96   A 1.57 1.56 -68.3 0 1 599.19 21.09   L 599.19 68.20   A 0.81 0.76 67.5 0 1 598.99 68.73   L 585.33 84.08   A 1.81 1.80 -69.1 0 1 583.98 84.69   L 521.79 84.69   A 1.16 1.15 64.3 0 1 521.06 84.43   L 516.11 80.40   A 1.17 1.16 19.3 0 1 515.67 79.49   L 515.67 61.05   A 0.72 0.71 90.0 0 0 514.96 60.33   L 513.44 60.33   A 0.77 0.76 89.3 0 0 512.68 61.12   Q 512.87 66.46 512.75 80.41   Q 512.74 81.62 511.22 82.33   Q 510.41 82.70 509.74 83.87   Q 509.22 84.77 506.76 84.74   Q 493.75 84.62 467.42 84.71   A 1.50 1.46 -21.9 0 1 466.37 84.28   L 462.42 80.33   A 1.36 1.33 -67.9 0 1 462.03 79.38   L 462.03 61.07   A 0.64 0.63 -90.0 0 0 461.40 60.43   L 458.42 60.43   A 0.56 0.56 0.0 0 0 457.86 61.02   Q 457.94 62.83 457.91 79.99   Q 457.91 82.57 456.23 82.60   A 0.80 0.80 0.0 0 0 455.49 83.14   Q 454.97 84.62 453.87 84.64   Q 447.81 84.74 437.12 84.69   A 1.99 1.98 -22.0 0 1 435.74 84.11   L 433.52 81.89   A 1.15 1.15 0.0 0 0 431.90 81.89   L 429.34 84.45   A 0.92 0.92 0.0 0 1 428.69 84.72   Q 416.68 84.68 385.79 84.68   C 381.01 84.68 379.28 81.90 376.40 78.90   A 0.92 0.92 0.0 0 0 375.09 78.89   L 369.67 84.32   A 1.26 1.25 -67.3 0 1 368.78 84.69   L 294.08 84.69   A 0.75 0.75 0.0 0 1 293.55 84.47   L 289.22 80.13   A 1.20 1.18 22.8 0 1 288.87 79.29   L 288.87 60.92   Z   M 253.87 56.67   L 252.73 55.52   A 1.58 1.54 66.6 0 0 251.64 55.07   L 222.30 55.07   A 0.50 0.49 0.0 0 1 221.80 54.58   L 221.80 15.05   A 0.92 0.90 -69.4 0 0 221.50 14.37   L 217.50 10.81   A 2.50 2.50 0.0 0 0 215.84 10.18   L 200.91 10.18   A 1.36 1.34 25.2 0 0 200.06 10.48   Q 197.58 12.46 197.58 13.75   Q 197.62 24.92 197.68 55.64   A 0.46 0.46 0.0 0 1 196.92 55.98   L 196.39 55.51   A 1.73 1.72 65.5 0 0 195.25 55.08   L 171.99 55.08   A 0.56 0.55 -90.0 0 1 171.44 54.52   L 171.44 15.47   A 2.08 2.04 -64.1 0 0 171.02 14.22   Q 169.20 11.83 166.99 10.50   A 2.29 2.27 -28.9 0 0 165.79 10.16   Q 159.32 10.15 152.59 10.18   C 150.82 10.19 149.71 10.68 148.95 12.02   A 1.49 1.35 39.6 0 1 146.65 12.12   C 145.39 10.72 144.65 10.18 142.55 10.17   Q 138.86 10.16 107.69 10.19   C 104.75 10.19 103.71 11.39 102.03 13.39   A 1.14 1.14 0.0 0 1 100.39 13.51   L 97.73 11.15   A 3.91 3.90 -24.1 0 0 95.13 10.16   L 54.98 10.16   A 5.91 5.87 24.6 0 0 51.15 11.57   Q 48.19 14.09 45.56 16.94   Q 42.93 19.79 43.04 24.12   Q 43.34 36.91 43.09 66.25   C 43.07 68.83 43.66 70.19 45.51 71.76   Q 51.30 76.66 55.07 81.82   A 2.27 2.27 0.0 0 0 56.91 82.76   L 94.81 82.76   A 3.38 3.38 0.0 0 0 97.20 81.77   L 101.29 77.68   A 1.51 1.51 0.0 0 1 103.55 77.82   L 106.88 82.11   A 0.95 0.94 82.1 0 0 107.22 82.37   Q 108.34 82.85 110.26 82.83   Q 119.39 82.74 143.73 82.81   C 146.53 82.81 147.46 82.74 148.40 80.11   A 0.84 0.84 0.0 0 1 149.98 80.09   Q 150.47 81.33 151.31 82.24   A 1.65 1.65 0.0 0 0 152.52 82.77   Q 173.55 82.83 196.90 82.80   C 198.66 82.80 198.70 82.22 199.22 80.86   A 0.70 0.70 0.0 0 1 200.45 80.73   C 201.58 82.46 202.60 82.77 204.79 82.77   Q 236.03 82.83 251.94 82.80   C 253.98 82.80 255.35 82.12 255.88 80.19   A 0.59 0.58 37.4 0 1 256.95 80.05   Q 257.86 81.58 259.00 82.43   A 1.79 1.79 0.0 0 0 260.05 82.77   L 277.19 82.77   A 2.50 2.49 -0.0 0 0 279.69 80.28   L 279.69 57.48   A 0.34 0.34 0.0 0 1 280.03 57.14   L 290.33 57.14   A 0.48 0.48 0.0 0 1 290.81 57.62   L 290.81 78.11   A 1.52 1.50 28.0 0 0 291.08 78.97   Q 292.71 81.35 294.33 82.44   A 2.07 2.05 -27.8 0 0 295.48 82.79   L 313.16 82.79   A 1.00 0.99 -76.1 0 0 314.04 82.25   L 314.81 80.79   A 0.82 0.82 0.0 0 1 316.31 80.90   Q 316.96 82.73 318.80 82.74   Q 339.63 82.86 367.82 82.81   A 2.90 2.89 22.3 0 0 369.88 81.95   L 374.33 77.50   A 2.40 2.40 0.0 0 1 377.72 77.50   L 382.20 81.98   A 2.91 2.87 67.2 0 0 384.24 82.83   L 427.46 82.83   A 2.03 2.01 -61.0 0 0 428.55 82.51   Q 430.04 81.58 431.81 79.50   A 1.57 1.56 -43.7 0 1 434.24 79.55   L 436.14 82.00   A 2.18 2.17 -19.1 0 0 437.88 82.84   Q 448.66 82.75 451.35 82.83   C 456.05 82.96 455.84 80.00 455.88 75.88   Q 455.97 65.74 455.76 57.54   A 0.52 0.52 0.0 0 1 456.28 57.01   L 463.09 57.01   A 0.65 0.65 0.0 0 1 463.74 57.66   L 463.74 78.37   A 1.19 1.16 -68.0 0 0 464.08 79.20   L 467.14 82.26   A 1.94 1.91 -22.2 0 0 468.50 82.82   L 484.55 82.82   A 1.67 1.66 -67.4 0 0 485.73 82.33   L 487.25 80.81   A 0.55 0.55 0.0 0 1 488.15 81.00   C 488.63 82.22 489.06 82.83 490.56 82.82   Q 502.16 82.78 506.39 82.90   C 509.07 82.97 510.46 81.65 510.44 79.03   Q 510.41 71.77 510.36 57.61   A 0.42 0.41 -90.0 0 1 510.77 57.19   L 517.18 57.19   A 0.46 0.45 -90.0 0 1 517.63 57.65   L 517.63 78.47   A 1.61 1.60 21.3 0 0 518.16 79.66   L 521.29 82.44   A 1.54 1.51 -23.9 0 0 522.30 82.82   L 538.72 82.82   A 1.04 1.01 21.5 0 0 539.46 82.51   L 541.04 80.93   A 0.67 0.67 0.0 0 1 542.05 81.01   Q 543.10 82.46 544.54 82.80   A 1.17 0.80 -29.0 0 0 544.75 82.82   L 582.88 82.82   A 2.33 2.30 25.5 0 0 584.32 82.32   Q 588.11 79.30 589.50 75.13   A 0.43 0.39 -15.7 0 1 589.60 74.97   L 597.12 67.45   A 0.89 0.86 -23.1 0 0 597.38 66.83   L 597.38 21.98   A 3.08 3.07 -65.2 0 0 596.65 19.99   Q 592.63 15.27 587.95 11.54   Q 586.09 10.05 583.27 10.05   Q 566.12 10.02 541.39 10.07   A 1.04 1.02 22.1 0 0 540.66 10.37   L 538.13 12.90   A 1.35 1.35 0.0 0 1 536.07 12.72   Q 534.45 10.41 532.89 10.08   A 1.21 1.08 48.3 0 0 532.63 10.05   L 488.98 10.05   A 1.28 1.25 21.6 0 0 488.07 10.43   L 485.56 12.93   A 1.46 1.46 0.0 0 1 483.36 12.77   C 481.73 10.55 480.20 9.91 477.23 9.93   Q 448.14 10.12 439.40 10.07   A 1.55 1.53 22.3 0 0 438.31 10.52   L 435.13 13.70   A 1.04 1.04 0.0 0 1 433.81 13.82   Q 431.91 12.52 430.96 10.81   A 1.49 1.47 -14.3 0 0 429.66 10.05   L 382.23 10.05   A 2.37 2.36 22.7 0 0 380.57 10.73   L 376.90 14.40   A 0.74 0.74 0.0 0 1 375.88 14.43   L 371.13 10.20   A 0.75 0.72 64.5 0 0 370.65 10.02   L 316.22 10.02   A 1.06 1.03 -66.9 0 0 315.48 10.33   L 312.75 13.06   A 1.20 1.20 0.0 0 1 311.05 13.06   L 308.89 10.89   A 2.71 2.70 -22.4 0 0 306.98 10.10   Q 279.13 10.19 264.19 10.14   C 260.71 10.13 256.78 15.01 254.94 17.38   A 2.60 2.58 -26.3 0 0 254.40 18.96   L 254.40 56.45   A 0.31 0.31 0.0 0 1 253.87 56.67   Z"/>
<path xmlns="http://www.w3.org/2000/svg" fill="#ffea00" fill-opacity="0.996" d="   M 253.87 56.67   A 0.31 0.31 0.0 0 0 254.40 56.45   L 254.40 18.96   A 2.60 2.58 -26.3 0 1 254.94 17.38   C 256.78 15.01 260.71 10.13 264.19 10.14   Q 279.13 10.19 306.98 10.10   A 2.71 2.70 -22.4 0 1 308.89 10.89   L 311.05 13.06   A 1.20 1.20 0.0 0 0 312.75 13.06   L 315.48 10.33   A 1.06 1.03 -66.9 0 1 316.22 10.02   L 370.65 10.02   A 0.75 0.72 64.5 0 1 371.13 10.20   L 375.88 14.43   A 0.74 0.74 0.0 0 0 376.90 14.40   L 380.57 10.73   A 2.37 2.36 22.7 0 1 382.23 10.05   L 429.66 10.05   A 1.49 1.47 -14.3 0 1 430.96 10.81   Q 431.91 12.52 433.81 13.82   A 1.04 1.04 0.0 0 0 435.13 13.70   L 438.31 10.52   A 1.55 1.53 22.3 0 1 439.40 10.07   Q 448.14 10.12 477.23 9.93   C 480.20 9.91 481.73 10.55 483.36 12.77   A 1.46 1.46 0.0 0 0 485.56 12.93   L 488.07 10.43   A 1.28 1.25 21.6 0 1 488.98 10.05   L 532.63 10.05   A 1.21 1.08 48.3 0 1 532.89 10.08   Q 534.45 10.41 536.07 12.72   A 1.35 1.35 0.0 0 0 538.13 12.90   L 540.66 10.37   A 1.04 1.02 22.1 0 1 541.39 10.07   Q 566.12 10.02 583.27 10.05   Q 586.09 10.05 587.95 11.54   Q 592.63 15.27 596.65 19.99   A 3.08 3.07 -65.2 0 1 597.38 21.98   L 597.38 66.83   A 0.89 0.86 -23.1 0 1 597.12 67.45   L 589.60 74.97   A 0.43 0.39 -15.7 0 0 589.50 75.13   Q 588.11 79.30 584.32 82.32   A 2.33 2.30 25.5 0 1 582.88 82.82   L 544.75 82.82   A 1.17 0.80 -29.0 0 1 544.54 82.80   Q 543.10 82.46 542.05 81.01   A 0.67 0.67 0.0 0 0 541.04 80.93   L 539.46 82.51   A 1.04 1.01 21.5 0 1 538.72 82.82   L 522.30 82.82   A 1.54 1.51 -23.9 0 1 521.29 82.44   L 518.16 79.66   A 1.61 1.60 21.3 0 1 517.63 78.47   L 517.63 57.65   A 0.46 0.45 -90.0 0 0 517.18 57.19   L 510.77 57.19   A 0.42 0.41 -90.0 0 0 510.36 57.61   Q 510.41 71.77 510.44 79.03   C 510.46 81.65 509.07 82.97 506.39 82.90   Q 502.16 82.78 490.56 82.82   C 489.06 82.83 488.63 82.22 488.15 81.00   A 0.55 0.55 0.0 0 0 487.25 80.81   L 485.73 82.33   A 1.67 1.66 -67.4 0 1 484.55 82.82   L 468.50 82.82   A 1.94 1.91 -22.2 0 1 467.14 82.26   L 464.08 79.20   A 1.19 1.16 -68.0 0 1 463.74 78.37   L 463.74 57.66   A 0.65 0.65 0.0 0 0 463.09 57.01   L 456.28 57.01   A 0.52 0.52 0.0 0 0 455.76 57.54   Q 455.97 65.74 455.88 75.88   C 455.84 80.00 456.05 82.96 451.35 82.83   Q 448.66 82.75 437.88 82.84   A 2.18 2.17 -19.1 0 1 436.14 82.00   L 434.24 79.55   A 1.57 1.56 -43.7 0 0 431.81 79.50   Q 430.04 81.58 428.55 82.51   A 2.03 2.01 -61.0 0 1 427.46 82.83   L 384.24 82.83   A 2.91 2.87 67.2 0 1 382.20 81.98   L 377.72 77.50   A 2.40 2.40 0.0 0 0 374.33 77.50   L 369.88 81.95   A 2.90 2.89 22.3 0 1 367.82 82.81   Q 339.63 82.86 318.80 82.74   Q 316.96 82.73 316.31 80.90   A 0.82 0.82 0.0 0 0 314.81 80.79   L 314.04 82.25   A 1.00 0.99 -76.1 0 1 313.16 82.79   L 295.48 82.79   A 2.07 2.05 -27.8 0 1 294.33 82.44   Q 292.71 81.35 291.08 78.97   A 1.52 1.50 28.0 0 1 290.81 78.11   L 290.81 57.62   A 0.48 0.48 0.0 0 0 290.33 57.14   L 280.03 57.14   A 0.34 0.34 0.0 0 0 279.69 57.48   L 279.69 80.28   A 2.50 2.49 0.0 0 1 277.19 82.77   L 260.05 82.77   A 1.79 1.79 0.0 0 1 259.00 82.43   Q 257.86 81.58 256.95 80.05   A 0.59 0.58 37.4 0 0 255.88 80.19   C 255.35 82.12 253.98 82.80 251.94 82.80   Q 236.03 82.83 204.79 82.77   C 202.60 82.77 201.58 82.46 200.45 80.73   A 0.70 0.70 0.0 0 0 199.22 80.86   C 198.70 82.22 198.66 82.80 196.90 82.80   Q 173.55 82.83 152.52 82.77   A 1.65 1.65 0.0 0 1 151.31 82.24   Q 150.47 81.33 149.98 80.09   A 0.84 0.84 0.0 0 0 148.40 80.11   C 147.46 82.74 146.53 82.81 143.73 82.81   Q 119.39 82.74 110.26 82.83   Q 108.34 82.85 107.22 82.37   A 0.95 0.94 82.1 0 1 106.88 82.11   L 103.55 77.82   A 1.51 1.51 0.0 0 0 101.29 77.68   L 97.20 81.77   A 3.38 3.38 0.0 0 1 94.81 82.76   L 56.91 82.76   A 2.27 2.27 0.0 0 1 55.07 81.82   Q 51.30 76.66 45.51 71.76   C 43.66 70.19 43.07 68.83 43.09 66.25   Q 43.34 36.91 43.04 24.12   Q 42.93 19.79 45.56 16.94   Q 48.19 14.09 51.15 11.57   A 5.91 5.87 24.6 0 1 54.98 10.16   L 95.13 10.16   A 3.91 3.90 -24.1 0 1 97.73 11.15   L 100.39 13.51   A 1.14 1.14 0.0 0 0 102.03 13.39   C 103.71 11.39 104.75 10.19 107.69 10.19   Q 138.86 10.16 142.55 10.17   C 144.65 10.18 145.39 10.72 146.65 12.12   A 1.49 1.35 39.6 0 0 148.95 12.02   C 149.71 10.68 150.82 10.19 152.59 10.18   Q 159.32 10.15 165.79 10.16   A 2.29 2.27 -28.9 0 1 166.99 10.50   Q 169.20 11.83 171.02 14.22   A 2.08 2.04 -64.1 0 1 171.44 15.47   L 171.44 54.52   A 0.56 0.55 -90.0 0 0 171.99 55.08   L 195.25 55.08   A 1.73 1.72 65.5 0 1 196.39 55.51   L 196.92 55.98   A 0.46 0.46 0.0 0 0 197.68 55.64   Q 197.62 24.92 197.58 13.75   Q 197.58 12.46 200.06 10.48   A 1.36 1.34 25.2 0 1 200.91 10.18   L 215.84 10.18   A 2.50 2.50 0.0 0 1 217.50 10.81   L 221.50 14.37   A 0.92 0.90 -69.4 0 1 221.80 15.05   L 221.80 54.58   A 0.50 0.49 0.0 0 0 222.30 55.07   L 251.64 55.07   A 1.58 1.54 66.6 0 1 252.73 55.52   L 253.87 56.67   Z   M 148.53 71.45   Q 147.23 72.51 145.59 74.86   Q 144.27 76.76 141.78 76.76   Q 122.48 76.73 111.51 76.64   A 1.58 1.57 84.0 0 1 109.99 75.40   L 109.97 75.32   A 1.04 1.03 -7.1 0 1 110.97 74.04   L 140.01 73.96   A 2.98 2.94 -67.3 0 0 142.10 73.09   L 148.66 66.52   A 0.65 0.64 68.6 0 0 148.86 66.05   L 148.86 22.33   A 2.89 2.84 -60.9 0 0 148.45 20.85   C 146.37 17.38 144.38 13.41 140.50 13.18   Q 139.72 13.13 109.17 13.12   A 3.14 3.11 -67.5 0 0 106.95 14.05   L 103.26 17.74   A 2.22 2.19 -22.5 0 0 102.60 19.31   L 102.60 65.98   A 2.40 2.39 -13.7 0 1 101.30 68.11   C 97.02 70.30 96.17 76.62 91.23 76.66   Q 78.06 76.77 59.47 76.67   A 1.59 1.58 -6.5 0 1 57.94 75.46   L 57.91 75.31   A 0.99 0.99 0.0 0 1 58.87 74.09   Q 79.70 73.94 89.49 74.00   C 94.01 74.03 94.52 69.20 98.34 67.82   Q 99.05 67.56 99.32 67.25   A 1.28 1.26 67.2 0 0 99.65 66.42   L 99.79 51.90   A 0.55 0.55 0.0 0 0 99.24 51.34   L 84.86 51.34   A 2.24 2.23 90.0 0 0 82.63 53.58   L 82.63 57.04   A 0.78 0.78 0.0 0 1 81.85 57.82   L 79.66 57.82   A 0.84 0.84 0.0 0 1 78.82 56.98   L 78.82 52.53   A 2.50 2.50 0.0 0 1 79.45 50.87   L 81.30 48.80   A 1.01 1.00 -69.1 0 1 82.05 48.46   L 99.11 48.46   A 0.71 0.70 -0.0 0 0 99.82 47.76   L 99.82 41.54   A 0.75 0.74 -0.0 0 0 99.07 40.80   L 84.38 40.80   A 1.17 1.17 0.0 0 1 83.45 40.34   L 82.93 39.68   A 0.87 0.86 71.0 0 1 83.61 38.28   L 99.21 38.28   A 0.54 0.54 0.0 0 0 99.75 37.74   L 99.75 19.31   A 2.26 2.24 22.9 0 0 99.10 17.73   L 95.44 14.08   A 3.19 3.17 -22.4 0 0 93.19 13.15   Q 76.53 13.15 59.63 13.09   C 54.19 13.07 51.32 16.26 47.98 20.50   Q 46.40 22.50 46.36 24.14   Q 46.09 36.10 46.20 59.59   C 46.22 64.77 45.91 67.26 49.53 70.26   Q 54.01 73.97 56.68 78.29   A 1.78 1.78 0.0 0 0 58.20 79.14   Q 78.92 79.07 91.24 79.12   C 96.48 79.14 98.22 75.69 101.72 71.10   A 0.76 0.76 0.0 0 1 102.93 71.10   L 108.33 78.04   A 2.73 2.73 0.0 0 0 110.48 79.09   L 143.96 79.09   A 2.20 2.18 22.3 0 0 145.51 78.45   L 148.40 75.57   A 1.69 1.67 71.2 0 0 148.88 74.58   L 149.21 71.82   A 0.42 0.41 -16.2 0 0 148.53 71.45   Z   M 197.66 75.55   Q 197.48 75.57 196.73 76.28   A 1.52 1.52 0.0 0 1 195.68 76.70   L 154.42 76.70   A 0.86 0.86 0.0 0 1 153.56 75.84   L 153.56 75.00   A 0.95 0.94 0.0 0 1 154.51 74.06   Q 188.14 74.01 193.99 74.06   Q 196.41 74.08 196.41 72.02   Q 196.42 68.15 196.36 59.12   A 1.47 1.46 -0.2 0 0 194.89 57.67   L 168.13 57.67   A 0.53 0.53 0.0 0 1 167.60 57.14   L 167.60 17.22   A 2.15 1.83 40.4 0 0 167.50 16.60   Q 166.38 13.18 162.53 13.12   C 158.03 13.05 151.79 12.02 150.09 16.21   A 1.42 1.38 -44.1 0 0 150.06 17.17   Q 151.11 20.21 151.11 21.00   Q 150.98 47.54 151.17 75.78   Q 151.19 77.66 153.27 78.85   A 1.94 1.94 0.0 0 0 154.24 79.11   Q 192.11 79.06 194.37 79.10   C 196.22 79.13 198.36 78.34 198.28 76.09   A 0.56 0.56 0.0 0 0 197.66 75.55   Z   M 217.96 57.49   L 217.96 16.63   A 1.47 1.37 -61.4 0 0 217.78 15.93   Q 216.36 13.43 214.53 13.25   Q 210.81 12.89 202.99 13.27   Q 200.28 13.40 200.26 16.50   Q 200.14 37.00 200.17 73.89   C 200.17 76.57 201.03 77.89 203.12 78.94   A 1.53 1.51 -31.4 0 0 203.80 79.10   L 252.32 79.10   A 1.56 1.49 -63.1 0 0 253.26 78.77   Q 254.76 77.57 255.22 75.24   A 0.69 0.69 0.0 0 0 254.03 74.65   L 252.48 76.39   A 0.95 0.94 20.9 0 1 251.78 76.70   L 203.41 76.70   A 0.96 0.96 0.0 0 1 202.45 75.74   L 202.45 74.94   A 0.88 0.88 0.0 0 1 203.33 74.06   L 250.00 74.06   A 2.42 2.42 0.0 0 0 252.42 71.62   Q 252.38 63.69 252.45 62.01   C 252.53 60.02 251.73 57.68 249.75 57.67   Q 226.72 57.62 218.17 57.69   A 0.20 0.20 0.0 0 1 217.96 57.49   Z   M 313.64 75.60   L 312.89 76.34   A 1.29 1.28 -67.6 0 1 311.97 76.73   L 297.85 76.73   A 0.62 0.61 -90.0 0 1 297.24 76.11   L 297.24 74.66   A 0.63 0.63 0.0 0 1 297.87 74.03   L 310.80 74.03   A 2.02 2.02 0.0 0 0 312.82 72.01   L 312.82 20.60   A 1.54 1.49 23.2 0 0 312.37 19.53   L 306.89 14.05   A 2.94 2.92 67.4 0 0 304.82 13.19   Q 273.01 13.12 268.00 13.05   C 263.85 12.99 261.05 16.85 258.77 19.78   C 257.42 21.49 257.39 23.03 257.39 25.25   Q 257.45 39.36 257.42 75.81   A 1.33 1.29 -68.2 0 0 257.80 76.74   L 259.91 78.85   A 1.00 0.95 -21.5 0 0 260.60 79.13   L 275.40 79.13   A 0.92 0.92 0.0 0 0 276.21 78.65   L 277.98 75.51   A 0.72 0.72 0.0 0 0 277.51 74.46   L 277.28 74.41   A 0.68 0.67 16.5 0 0 276.59 74.78   L 275.90 76.16   A 0.99 0.99 0.0 0 1 275.01 76.72   L 260.70 76.72   A 0.92 0.91 -90.0 0 1 259.79 75.80   L 259.79 74.91   A 0.84 0.83 90.0 0 1 260.62 74.07   L 273.87 74.07   A 2.34 2.34 0.0 0 0 276.21 71.73   L 276.21 54.26   A 0.53 0.52 90.0 0 1 276.73 53.73   L 293.39 53.73   A 0.44 0.43 -90.0 0 1 293.82 54.17   L 293.82 75.35   A 1.29 1.09 40.0 0 0 293.89 75.75   Q 295.06 79.17 298.48 79.15   Q 311.89 79.07 312.27 79.04   A 1.78 1.70 23.3 0 0 313.18 78.70   Q 314.29 77.84 314.35 75.91   A 0.42 0.41 68.3 0 0 313.64 75.60   Z   M 376.58 71.00   L 383.63 78.06   A 3.43 3.41 -22.4 0 0 386.05 79.06   L 425.85 79.06   A 2.79 2.68 28.6 0 0 427.25 78.68   Q 430.48 76.76 432.22 73.22   Q 432.87 71.91 434.58 72.07   A 0.61 0.61 0.0 0 1 435.13 72.77   Q 434.58 76.10 437.79 78.64   A 1.84 1.80 -24.9 0 0 438.89 79.03   Q 443.23 79.12 449.54 79.03   C 452.24 78.99 453.10 78.05 453.98 75.51   A 0.59 0.59 0.0 0 0 452.98 74.93   L 451.57 76.51   A 0.81 0.80 -68.4 0 1 450.98 76.77   L 439.18 76.77   A 1.21 1.20 0.0 0 1 437.97 75.57   L 437.97 74.98   A 0.92 0.92 0.0 0 1 438.89 74.06   L 450.09 74.06   A 2.05 2.04 -0.0 0 0 452.14 72.02   L 452.14 54.23   A 0.59 0.59 0.0 0 1 452.73 53.64   L 466.08 53.64   A 0.71 0.71 0.0 0 1 466.79 54.35   L 466.79 75.53   A 1.06 1.03 23.1 0 0 467.10 76.27   L 469.47 78.64   A 1.44 1.42 67.3 0 0 470.48 79.06   Q 477.26 79.04 481.84 79.08   C 484.19 79.10 485.54 78.08 486.29 76.22   A 0.45 0.45 0.0 0 0 485.61 75.68   L 484.53 76.44   A 1.92 1.90 27.4 0 1 483.44 76.78   L 470.74 76.78   A 0.88 0.88 0.0 0 1 469.86 75.90   L 469.86 74.83   A 0.81 0.81 0.0 0 1 470.67 74.02   L 482.55 74.02   A 2.01 2.00 -0.0 0 0 484.56 72.02   L 484.56 20.91   A 1.37 1.34 -65.9 0 0 484.23 20.02   C 482.37 17.86 481.56 14.90 478.82 13.57   A 1.84 1.76 -30.8 0 0 478.03 13.39   L 441.87 13.22   A 1.95 1.90 24.6 0 0 440.64 13.66   Q 437.25 16.43 435.28 20.57   A 2.00 1.86 -34.1 0 0 435.09 21.40   Q 435.20 40.13 435.18 64.35   C 435.18 65.87 434.87 68.55 433.64 69.49   Q 430.47 71.92 427.47 75.42   A 3.95 3.94 20.3 0 1 424.48 76.79   L 387.55 76.79   A 3.13 3.13 0.0 0 1 385.14 75.66   C 383.80 74.01 379.96 71.38 379.40 68.73   A 0.57 0.56 -73.6 0 1 380.35 68.21   L 385.49 73.35   A 2.39 2.36 67.5 0 0 387.18 74.06   L 422.88 74.06   A 3.32 3.30 18.4 0 0 425.52 72.75   Q 428.15 69.27 431.46 67.32   A 1.31 1.28 -15.7 0 0 432.10 66.21   Q 432.10 39.97 432.21 22.00   Q 432.24 17.35 428.23 13.65   A 1.33 1.31 -22.9 0 0 427.32 13.29   Q 406.00 13.39 385.94 13.22   C 382.04 13.18 379.26 17.34 377.49 20.25   A 2.49 2.46 -29.5 0 0 377.12 21.55   L 377.12 38.67   A 1.25 1.24 -24.8 0 1 376.82 39.48   L 373.64 43.05   A 1.08 1.04 -70.2 0 1 372.93 43.40   Q 371.33 43.53 370.03 42.96   A 1.65 1.39 -68.2 0 1 369.37 40.97   Q 370.11 38.99 372.99 37.42   A 1.76 1.76 0.0 0 0 373.91 35.96   Q 374.34 27.17 374.03 20.76   C 373.90 18.09 369.84 14.47 368.05 13.45   A 0.90 0.88 -30.2 0 0 367.62 13.34   Q 334.07 13.36 318.83 13.19   Q 317.25 13.17 315.66 15.44   A 0.42 0.39 -28.8 0 0 315.58 15.68   L 315.58 75.11   A 1.38 1.36 -68.2 0 0 315.99 76.09   L 318.53 78.63   A 1.51 1.47 66.9 0 0 319.58 79.07   L 366.42 79.07   A 2.78 2.75 22.1 0 0 368.39 78.25   L 375.64 71.00   A 0.67 0.67 0.0 0 1 376.58 71.00   Z   M 538.98 74.98   L 537.62 76.50   A 0.86 0.83 19.3 0 1 536.97 76.80   L 523.24 76.80   A 0.68 0.68 0.0 0 1 522.56 76.12   L 522.56 74.71   A 0.69 0.69 0.0 0 1 523.25 74.02   L 535.93 74.02   A 2.19 2.19 0.0 0 0 538.12 71.83   L 538.12 50.15   A 1.17 1.16 90.0 0 1 539.28 48.98   L 539.93 48.98   A 1.42 1.41 -90.0 0 1 541.34 50.40   L 541.34 70.99   A 2.00 1.98 35.3 0 0 541.46 71.67   Q 542.24 73.96 542.37 76.61   A 2.60 2.59 88.6 0 0 544.96 79.08   L 581.36 79.08   A 2.50 2.44 28.7 0 0 582.65 78.72   Q 584.11 77.85 585.64 75.54   A 1.05 1.05 0.0 0 0 585.73 74.55   L 585.60 74.11   A 1.45 1.43 59.8 0 1 585.97 72.68   L 592.44 66.20   A 2.77 2.75 -22.6 0 0 593.25 64.25   L 593.25 23.85   A 3.94 3.91 -67.3 0 0 592.14 21.11   Q 589.51 18.37 586.09 15.17   Q 584.09 13.29 582.75 13.30   Q 559.58 13.34 544.05 13.29   Q 542.57 13.28 541.32 15.20   A 1.47 1.44 -29.4 0 0 541.08 16.03   C 541.41 30.30 541.74 37.90 540.59 47.26   A 0.58 0.57 -71.6 0 1 539.74 47.69   Q 537.67 46.54 535.95 46.42   A 0.71 0.71 0.0 0 1 535.30 45.84   C 534.75 42.64 537.15 42.89 537.91 41.10   Q 538.22 40.37 538.30 38.49   Q 538.32 38.02 538.37 21.30   C 538.38 19.63 536.72 19.85 535.90 18.73   Q 533.65 15.67 531.94 13.77   A 1.44 1.43 68.9 0 0 530.87 13.29   Q 507.67 13.37 491.52 13.25   Q 490.32 13.24 488.19 15.59   A 1.11 1.11 0.0 0 0 487.89 16.35   L 487.89 75.38   A 1.36 1.33 -59.3 0 0 488.04 76.00   Q 488.80 77.46 490.32 78.65   A 2.00 1.98 63.7 0 0 491.54 79.07   L 505.57 79.07   A 0.90 0.87 20.9 0 0 506.22 78.79   Q 507.83 77.07 508.37 75.23   A 0.40 0.40 0.0 0 0 507.99 74.72   L 507.57 74.72   A 0.59 0.58 -75.0 0 0 507.06 75.02   L 506.39 76.22   A 1.09 1.08 -75.5 0 1 505.44 76.79   L 491.16 76.79   A 0.82 0.81 -90.0 0 1 490.35 75.97   L 490.35 74.81   A 0.73 0.73 0.0 0 1 491.08 74.08   L 504.34 74.08   A 2.39 2.38 90.0 0 0 506.72 71.69   L 506.72 54.10   A 0.43 0.42 0.0 0 1 507.15 53.68   L 520.03 53.68   A 0.68 0.68 0.0 0 1 520.71 54.35   Q 520.88 65.27 520.66 75.00   C 520.60 77.58 520.99 79.07 523.78 79.07   Q 535.15 79.06 535.74 79.08   C 538.52 79.17 539.45 77.59 539.69 75.29   A 0.41 0.41 0.0 0 0 538.98 74.98   Z"/>
<path xmlns="http://www.w3.org/2000/svg" fill="#010100" fill-opacity="0.996" d="   M 148.53 71.45   A 0.42 0.41 -16.2 0 1 149.21 71.82   L 148.88 74.58   A 1.69 1.67 71.2 0 1 148.40 75.57   L 145.51 78.45   A 2.20 2.18 22.3 0 1 143.96 79.09   L 110.48 79.09   A 2.73 2.73 0.0 0 1 108.33 78.04   L 102.93 71.10   A 0.76 0.76 0.0 0 0 101.72 71.10   C 98.22 75.69 96.48 79.14 91.24 79.12   Q 78.92 79.07 58.20 79.14   A 1.78 1.78 0.0 0 1 56.68 78.29   Q 54.01 73.97 49.53 70.26   C 45.91 67.26 46.22 64.77 46.20 59.59   Q 46.09 36.10 46.36 24.14   Q 46.40 22.50 47.98 20.50   C 51.32 16.26 54.19 13.07 59.63 13.09   Q 76.53 13.15 93.19 13.15   A 3.19 3.17 -22.4 0 1 95.44 14.08   L 99.10 17.73   A 2.26 2.24 22.9 0 1 99.75 19.31   L 99.75 37.74   A 0.54 0.54 0.0 0 1 99.21 38.28   L 83.61 38.28   A 0.87 0.86 71.0 0 0 82.93 39.68   L 83.45 40.34   A 1.17 1.17 0.0 0 0 84.38 40.80   L 99.07 40.80   A 0.75 0.74 -0.0 0 1 99.82 41.54   L 99.82 47.76   A 0.71 0.70 -0.0 0 1 99.11 48.46   L 82.05 48.46   A 1.01 1.00 -69.1 0 0 81.30 48.80   L 79.45 50.87   A 2.50 2.50 0.0 0 0 78.82 52.53   L 78.82 56.98   A 0.84 0.84 0.0 0 0 79.66 57.82   L 81.85 57.82   A 0.78 0.78 0.0 0 0 82.63 57.04   L 82.63 53.58   A 2.24 2.23 90.0 0 1 84.86 51.34   L 99.24 51.34   A 0.55 0.55 0.0 0 1 99.79 51.90   L 99.65 66.42   A 1.28 1.26 67.2 0 1 99.32 67.25   Q 99.05 67.56 98.34 67.82   C 94.52 69.20 94.01 74.03 89.49 74.00   Q 79.70 73.94 58.87 74.09   A 0.99 0.99 0.0 0 0 57.91 75.31   L 57.94 75.46   A 1.59 1.58 -6.5 0 0 59.47 76.67   Q 78.06 76.77 91.23 76.66   C 96.17 76.62 97.02 70.30 101.30 68.11   A 2.40 2.39 -13.7 0 0 102.60 65.98   L 102.60 19.31   A 2.22 2.19 -22.5 0 1 103.26 17.74   L 106.95 14.05   A 3.14 3.11 -67.5 0 1 109.17 13.12   Q 139.72 13.13 140.50 13.18   C 144.38 13.41 146.37 17.38 148.45 20.85   A 2.89 2.84 -60.9 0 1 148.86 22.33   L 148.86 66.05   A 0.65 0.64 68.6 0 1 148.66 66.52   L 142.10 73.09   A 2.98 2.94 -67.3 0 1 140.01 73.96   L 110.97 74.04   A 1.04 1.03 -7.1 0 0 109.97 75.32   L 109.99 75.40   A 1.58 1.57 84.0 0 0 111.51 76.64   Q 122.48 76.73 141.78 76.76   Q 144.27 76.76 145.59 74.86   Q 147.23 72.51 148.53 71.45   Z   M 62.77 59.45   L 62.77 28.07   A 0.29 0.29 0.0 0 1 63.06 27.78   L 83.50 27.78   A 0.45 0.45 0.0 0 1 83.95 28.23   L 83.95 34.77   A 0.64 0.64 0.0 0 0 84.59 35.41   L 96.78 35.41   A 0.44 0.43 -90.0 0 0 97.21 34.97   L 97.21 20.12   A 1.22 1.21 0.0 0 0 95.99 18.91   L 94.53 18.91   A 0.67 0.66 90.0 0 1 93.87 18.24   L 93.87 16.31   A 1.12 1.12 0.0 0 0 92.75 15.19   Q 74.89 15.13 59.50 15.20   Q 56.57 15.22 54.88 16.89   Q 52.22 19.49 49.50 22.45   A 2.67 2.65 67.0 0 0 48.80 24.20   Q 48.44 41.80 48.70 62.25   Q 48.74 65.74 50.89 65.59   A 0.74 0.73 83.7 0 1 51.67 66.22   Q 52.00 68.33 54.38 68.89   A 1.28 1.26 1.1 0 1 55.33 69.87   Q 55.53 70.86 56.00 71.37   A 1.41 1.38 -21.1 0 0 57.02 71.81   Q 72.91 71.93 85.00 71.85   Q 88.38 71.82 89.36 71.42   A 3.58 3.53 -78.5 0 0 90.51 70.65   L 96.65 64.57   A 1.98 1.98 0.0 0 0 97.23 63.17   L 97.23 54.07   A 0.56 0.56 0.0 0 0 96.67 53.51   L 86.20 53.51   A 1.12 1.11 0.0 0 0 85.08 54.62   L 85.08 59.39   A 0.70 0.69 -90.0 0 1 84.39 60.09   L 63.41 60.09   A 0.64 0.64 0.0 0 1 62.77 59.45   Z   M 107.30 18.53   L 105.69 18.91   A 1.00 1.00 0.0 0 0 104.92 19.88   L 105.00 64.00   A 1.48 1.47 -66.3 0 0 105.38 64.99   Q 105.78 65.45 106.82 65.49   A 0.95 0.94 -9.1 0 1 107.68 66.10   C 108.11 67.23 108.76 68.23 109.78 68.86   Q 110.88 69.55 110.97 70.67   A 1.15 1.14 88.0 0 0 112.08 71.72   Q 119.49 71.88 139.10 71.84   A 1.52 1.37 1.6 0 0 140.61 70.55   Q 140.63 70.20 141.17 69.36   A 1.39 1.34 -80.7 0 1 141.93 68.79   Q 143.85 68.23 144.02 66.18   A 0.82 0.81 -87.7 0 1 144.83 65.42   L 145.54 65.42   A 1.34 1.33 0.0 0 0 146.88 64.09   L 146.88 23.51   A 2.80 2.77 22.7 0 0 146.06 21.54   L 143.49 18.98   A 1.98 1.93 73.9 0 0 142.54 18.44   Q 140.90 18.03 141.03 16.96   A 1.77 1.51 3.3 0 0 139.28 15.28   Q 127.99 15.03 109.28 15.24   A 1.28 1.27 87.5 0 0 108.03 16.61   Q 108.13 17.94 107.55 18.41   A 0.59 0.58 18.9 0 1 107.30 18.53   Z   M 65.27 57.33   A 0.48 0.48 0.0 0 0 65.75 57.81   L 67.67 57.81   A 0.48 0.48 0.0 0 0 68.15 57.33   L 68.15 33.38   A 0.48 0.48 0.0 0 1 68.63 32.90   L 80.99 32.90   A 0.48 0.48 0.0 0 0 81.47 32.42   L 81.47 30.50   A 0.48 0.48 0.0 0 0 80.99 30.02   L 65.75 30.02   A 0.48 0.48 0.0 0 0 65.27 30.50   L 65.27 57.33   Z   M 70.68 36.28   L 70.68 55.14   A 1.04 1.04 0.0 0 0 71.72 56.18   L 76.06 56.18   A 0.92 0.92 0.0 0 0 76.98 55.26   L 76.98 52.07   A 3.66 3.64 76.7 0 1 78.98 48.81   Q 80.47 48.05 81.20 47.23   A 1.02 1.01 20.9 0 1 81.95 46.90   L 96.75 46.90   A 0.81 0.80 -90.0 0 0 97.55 46.09   L 97.55 44.13   A 0.87 0.87 0.0 0 0 96.68 43.26   L 85.46 43.26   A 1.36 1.33 -30.7 0 1 84.84 43.11   Q 80.30 40.76 81.17 36.35   A 0.60 0.60 0.0 0 0 80.58 35.63   L 71.33 35.63   A 0.65 0.65 0.0 0 0 70.68 36.28   Z   M 104.3026 68.0943   A 2.47 0.84 -134.7 0 0 105.4429 70.4409   A 2.47 0.84 -134.7 0 0 107.7774 71.6057   A 2.47 0.84 -134.7 0 0 106.6371 69.2591   A 2.47 0.84 -134.7 0 0 104.3026 68.0943   Z"/>
<path xmlns="http://www.w3.org/2000/svg" fill="#010100" fill-opacity="0.996" d="   M 198.28 76.09   C 198.36 78.34 196.22 79.13 194.37 79.10   Q 192.11 79.06 154.24 79.11   A 1.94 1.94 0.0 0 1 153.27 78.85   Q 151.19 77.66 151.17 75.78   Q 150.98 47.54 151.11 21.00   Q 151.11 20.21 150.06 17.17   A 1.42 1.38 -44.1 0 1 150.09 16.21   C 151.79 12.02 158.03 13.05 162.53 13.12   Q 166.38 13.18 167.50 16.60   A 2.15 1.83 40.4 0 1 167.60 17.22   L 167.60 57.14   A 0.53 0.53 0.0 0 0 168.13 57.67   L 194.89 57.67   A 1.47 1.46 -0.2 0 1 196.36 59.12   Q 196.42 68.15 196.41 72.02   Q 196.41 74.08 193.99 74.06   Q 188.14 74.01 154.51 74.06   A 0.95 0.94 0.0 0 0 153.56 75.00   L 153.56 75.84   A 0.86 0.86 0.0 0 0 154.42 76.70   L 195.68 76.70   A 1.52 1.52 0.0 0 0 196.73 76.28   Q 197.48 75.57 197.66 75.55   A 0.56 0.56 0.0 0 1 198.28 76.09   Z   M 193.04 71.91   A 0.92 0.92 0.0 0 0 193.96 70.99   L 193.96 60.95   A 0.92 0.92 0.0 0 0 193.04 60.03   L 166.08 60.03   A 0.92 0.92 0.0 0 1 165.16 59.11   L 165.16 16.16   A 0.92 0.92 0.0 0 0 164.24 15.24   L 154.30 15.24   A 0.92 0.92 0.0 0 0 153.38 16.16   L 153.38 70.99   A 0.92 0.92 0.0 0 0 154.30 71.91   L 193.04 71.91   Z"/>
<path xmlns="http://www.w3.org/2000/svg" fill="#010100" fill-opacity="0.996" d="   M 217.96 57.49   A 0.20 0.20 0.0 0 0 218.17 57.69   Q 226.72 57.62 249.75 57.67   C 251.73 57.68 252.53 60.02 252.45 62.01   Q 252.38 63.69 252.42 71.62   A 2.42 2.42 0.0 0 1 250.00 74.06   L 203.33 74.06   A 0.88 0.88 0.0 0 0 202.45 74.94   L 202.45 75.74   A 0.96 0.96 0.0 0 0 203.41 76.70   L 251.78 76.70   A 0.95 0.94 20.9 0 0 252.48 76.39   L 254.03 74.65   A 0.69 0.69 0.0 0 1 255.22 75.24   Q 254.76 77.57 253.26 78.77   A 1.56 1.49 -63.1 0 1 252.32 79.10   L 203.80 79.10   A 1.53 1.51 -31.4 0 1 203.12 78.94   C 201.03 77.89 200.17 76.57 200.17 73.89   Q 200.14 37.00 200.26 16.50   Q 200.28 13.40 202.99 13.27   Q 210.81 12.89 214.53 13.25   Q 216.36 13.43 217.78 15.93   A 1.47 1.37 -61.4 0 1 217.96 16.63   L 217.96 57.49   Z   M 215.97 60.04   A 0.77 0.77 0.0 0 1 215.20 59.27   L 215.20 15.98   A 0.77 0.77 0.0 0 0 214.43 15.21   L 203.36 15.21   A 0.77 0.77 0.0 0 0 202.59 15.98   L 202.59 71.12   A 0.77 0.77 0.0 0 0 203.36 71.89   L 248.92 71.89   A 0.77 0.77 0.0 0 0 249.69 71.12   L 249.69 60.81   A 0.77 0.77 0.0 0 0 248.92 60.04   L 215.97 60.04   Z"/>
<path xmlns="http://www.w3.org/2000/svg" fill="#010100" fill-opacity="0.996" d="   M 314.35 75.91   Q 314.29 77.84 313.18 78.70   A 1.78 1.70 23.3 0 1 312.27 79.04   Q 311.89 79.07 298.48 79.15   Q 295.06 79.17 293.89 75.75   A 1.29 1.09 40.0 0 1 293.82 75.35   L 293.82 54.17   A 0.44 0.43 90.0 0 0 293.39 53.73   L 276.73 53.73   A 0.53 0.52 90.0 0 0 276.21 54.26   L 276.21 71.73   A 2.34 2.34 0.0 0 1 273.87 74.07   L 260.62 74.07   A 0.84 0.83 90.0 0 0 259.79 74.91   L 259.79 75.80   A 0.92 0.91 -90.0 0 0 260.70 76.72   L 275.01 76.72   A 0.99 0.99 0.0 0 0 275.90 76.16   L 276.59 74.78   A 0.68 0.67 16.5 0 1 277.28 74.41   L 277.51 74.46   A 0.72 0.72 0.0 0 1 277.98 75.51   L 276.21 78.65   A 0.92 0.92 0.0 0 1 275.40 79.13   L 260.60 79.13   A 1.00 0.95 -21.5 0 1 259.91 78.85   L 257.80 76.74   A 1.33 1.29 -68.2 0 1 257.42 75.81   Q 257.45 39.36 257.39 25.25   C 257.39 23.03 257.42 21.49 258.77 19.78   C 261.05 16.85 263.85 12.99 268.00 13.05   Q 273.01 13.12 304.82 13.19   A 2.94 2.92 67.4 0 1 306.89 14.05   L 312.37 19.53   A 1.54 1.49 23.2 0 1 312.82 20.60   L 312.82 72.01   A 2.02 2.02 0.0 0 1 310.80 74.03   L 297.87 74.03   A 0.63 0.63 0.0 0 0 297.24 74.66   L 297.24 76.11   A 0.62 0.61 90.0 0 0 297.85 76.73   L 311.97 76.73   A 1.29 1.28 -67.6 0 0 312.89 76.34   L 313.64 75.60   A 0.42 0.41 68.3 0 1 314.35 75.91   Z   M 309.58 22.19   L 308.80 22.19   A 0.77 0.76 -0.0 0 1 308.03 21.43   L 308.03 19.25   A 0.61 0.61 0.0 0 0 307.42 18.64   L 305.85 18.64   A 0.57 0.57 0.0 0 1 305.28 18.09   Q 305.22 16.98 305.33 16.72   A 1.17 1.07 10.5 0 0 304.22 15.24   Q 285.39 15.05 267.27 15.22   A 2.14 2.12 -78.1 0 0 265.34 16.49   Q 264.76 17.82 263.36 18.68   A 3.04 3.01 85.5 0 0 262.18 20.08   Q 261.69 21.29 260.72 22.37   A 3.38 3.38 0.0 0 0 259.87 24.61   L 259.87 71.41   A 0.49 0.49 0.0 0 0 260.36 71.90   L 272.88 71.90   A 0.49 0.48 -90.0 0 0 273.36 71.41   L 273.36 51.58   A 0.61 0.61 0.0 0 1 273.97 50.97   L 296.63 50.97   A 0.57 0.57 0.0 0 1 297.20 51.54   L 297.20 71.18   A 0.75 0.74 0.0 0 0 297.95 71.92   L 309.97 71.92   A 0.93 0.93 0.0 0 0 310.90 70.99   L 310.90 23.51   A 1.32 1.32 0.0 0 0 309.58 22.19   Z"/>
<path xmlns="http://www.w3.org/2000/svg" fill="#010100" fill-opacity="0.996" d="   M 375.64 71.00   L 368.39 78.25   A 2.78 2.75 22.1 0 1 366.42 79.07   L 319.58 79.07   A 1.51 1.47 66.9 0 1 318.53 78.63   L 315.99 76.09   A 1.38 1.36 -68.2 0 1 315.58 75.11   L 315.58 15.68   A 0.42 0.39 -28.8 0 1 315.66 15.44   Q 317.25 13.17 318.83 13.19   Q 334.07 13.36 367.62 13.34   A 0.90 0.88 -30.2 0 1 368.05 13.45   C 369.84 14.47 373.90 18.09 374.03 20.76   Q 374.34 27.17 373.91 35.96   A 1.76 1.76 0.0 0 1 372.99 37.42   Q 370.11 38.99 369.37 40.97   A 1.65 1.39 -68.2 0 0 370.03 42.96   Q 371.33 43.53 372.93 43.40   A 1.08 1.04 -70.2 0 0 373.64 43.05   L 376.82 39.48   A 1.25 1.24 -24.8 0 0 377.12 38.67   L 377.12 21.55   A 2.49 2.46 -29.5 0 1 377.49 20.25   C 379.26 17.34 382.04 13.18 385.94 13.22   Q 406.00 13.39 427.32 13.29   A 1.33 1.31 -22.9 0 1 428.23 13.65   Q 432.24 17.35 432.21 22.00   Q 432.10 39.97 432.10 66.21   A 1.31 1.28 -15.7 0 1 431.46 67.32   Q 428.15 69.27 425.52 72.75   A 3.32 3.30 18.4 0 1 422.88 74.06   L 387.18 74.06   A 2.39 2.36 67.5 0 1 385.49 73.35   L 380.35 68.21   A 0.57 0.56 -73.6 0 0 379.40 68.73   C 379.96 71.38 383.80 74.01 385.14 75.66   A 3.13 3.13 0.0 0 0 387.55 76.79   L 424.48 76.79   A 3.95 3.94 20.3 0 0 427.47 75.42   Q 430.47 71.92 433.64 69.49   C 434.87 68.55 435.18 65.87 435.18 64.35   Q 435.20 40.13 435.09 21.40   A 2.00 1.86 -34.1 0 1 435.28 20.57   Q 437.25 16.43 440.64 13.66   A 1.95 1.90 24.6 0 1 441.87 13.22   L 478.03 13.39   A 1.84 1.76 -30.8 0 1 478.82 13.57   C 481.56 14.90 482.37 17.86 484.23 20.02   A 1.37 1.34 -65.9 0 1 484.56 20.91   L 484.56 72.02   A 2.01 2.00 -0.0 0 1 482.55 74.02   L 470.67 74.02   A 0.81 0.81 0.0 0 0 469.86 74.83   L 469.86 75.90   A 0.88 0.88 0.0 0 0 470.74 76.78   L 483.44 76.78   A 1.92 1.90 27.4 0 0 484.53 76.44   L 485.61 75.68   A 0.45 0.45 0.0 0 1 486.29 76.22   C 485.54 78.08 484.19 79.10 481.84 79.08   Q 477.26 79.04 470.48 79.06   A 1.44 1.42 67.3 0 1 469.47 78.64   L 467.10 76.27   A 1.06 1.03 23.1 0 1 466.79 75.53   L 466.79 54.35   A 0.71 0.71 0.0 0 0 466.08 53.64   L 452.73 53.64   A 0.59 0.59 0.0 0 0 452.14 54.23   L 452.14 72.02   A 2.05 2.04 -0.0 0 1 450.09 74.06   L 438.89 74.06   A 0.92 0.92 0.0 0 0 437.97 74.98   L 437.97 75.57   A 1.21 1.20 -0.0 0 0 439.18 76.77   L 450.98 76.77   A 0.81 0.80 -68.4 0 0 451.57 76.51   L 452.98 74.93   A 0.59 0.59 0.0 0 1 453.98 75.51   C 453.10 78.05 452.24 78.99 449.54 79.03   Q 443.23 79.12 438.89 79.03   A 1.84 1.80 -24.9 0 1 437.79 78.64   Q 434.58 76.10 435.13 72.77   A 0.61 0.61 0.0 0 0 434.58 72.07   Q 432.87 71.91 432.22 73.22   Q 430.48 76.76 427.25 78.68   A 2.79 2.68 28.6 0 1 425.85 79.06   L 386.05 79.06   A 3.43 3.41 -22.4 0 1 383.63 78.06   L 376.58 71.00   A 0.67 0.67 0.0 0 0 375.64 71.00   Z   M 319.81 71.86   L 361.86 71.86   A 3.11 3.11 0.0 0 0 364.05 70.96   L 371.04 63.97   A 1.06 1.06 0.0 0 0 371.35 63.22   L 371.35 46.89   A 1.21 1.20 -0.0 0 0 370.14 45.69   L 367.60 45.69   A 0.87 0.87 0.0 0 1 366.73 44.82   L 366.73 44.15   A 0.67 0.67 0.0 0 0 365.96 43.49   Q 364.70 43.67 364.56 43.59   A 2.19 2.12 -40.6 0 1 364.91 39.79   Q 364.99 39.75 366.01 39.74   Q 367.48 39.73 367.15 37.49   A 0.63 0.63 0.0 0 1 367.88 36.77   Q 369.92 37.09 370.86 36.07   A 1.62 1.61 66.7 0 0 371.28 35.01   Q 371.48 26.95 371.18 20.50   C 371.08 18.31 370.03 18.28 368.13 18.50   A 0.74 0.74 0.0 0 1 367.31 17.76   L 367.31 16.18   A 0.94 0.94 0.0 0 0 366.37 15.24   L 320.00 15.24   A 0.72 0.71 -90.0 0 0 319.29 15.96   L 319.29 71.35   A 0.52 0.51 -0.0 0 0 319.81 71.86   Z   M 427.50 21.72   L 427.50 19.00   A 0.52 0.52 0.0 0 0 426.98 18.48   L 425.18 18.48   A 0.63 0.62 0.0 0 1 424.55 17.86   L 424.55 16.05   A 0.79 0.79 0.0 0 0 423.76 15.26   L 386.63 15.26   A 0.73 0.72 -12.6 0 0 385.97 16.29   Q 386.47 17.37 385.89 18.01   A 1.35 1.33 -70.0 0 1 384.98 18.44   Q 382.69 18.56 383.43 21.37   A 0.78 0.77 -6.3 0 1 382.65 22.34   Q 380.73 22.26 380.71 23.49   Q 380.47 43.83 380.74 64.50   A 0.79 0.79 0.0 0 0 381.54 65.28   Q 382.17 65.27 382.86 65.80   A 1.26 1.24 11.5 0 1 383.31 66.47   Q 383.82 68.33 385.70 68.85   Q 386.61 69.10 386.57 70.07   Q 386.53 70.99 387.38 71.58   A 1.62 1.60 -27.5 0 0 388.29 71.86   L 422.81 71.86   A 1.47 1.47 0.0 0 0 424.27 70.53   C 424.46 68.63 426.18 68.33 426.85 66.52   Q 427.31 65.30 428.81 65.33   A 1.07 1.07 0.0 0 0 429.90 64.26   Q 430.00 43.41 429.91 23.00   Q 429.90 21.99 428.32 22.36   A 0.66 0.66 0.0 0 1 427.50 21.72   Z   M 471.13 71.88   L 481.91 71.88   A 0.66 0.65 -90.0 0 0 482.56 71.22   L 482.56 22.98   A 0.76 0.75 -90.0 0 0 481.81 22.22   L 479.58 22.22   A 0.29 0.29 0.0 0 1 479.29 21.93   L 479.29 19.02   A 0.46 0.46 0.0 0 0 478.83 18.56   L 476.96 18.56   A 0.89 0.89 0.0 0 1 476.10 17.45   Q 476.39 16.34 476.36 15.89   A 0.58 0.58 0.0 0 0 475.78 15.35   L 443.50 15.35   A 0.57 0.57 0.0 0 0 442.99 16.17   Q 443.27 16.72 443.19 17.94   A 0.58 0.58 0.0 0 1 442.61 18.48   L 441.02 18.48   A 0.74 0.73 -90.0 0 0 440.29 19.22   L 440.29 21.31   A 1.06 1.05 -5.7 0 1 439.44 22.34   L 438.94 22.44   A 1.13 1.13 0.0 0 0 438.03 23.55   L 438.03 71.48   A 0.41 0.41 0.0 0 0 438.44 71.89   L 449.09 71.89   A 0.63 0.62 0.0 0 0 449.72 71.27   L 449.72 51.19   A 0.41 0.41 0.0 0 1 450.13 50.78   L 469.73 50.78   A 0.74 0.74 0.0 0 1 470.47 51.52   L 470.47 71.22   A 0.66 0.66 0.0 0 0 471.13 71.88   Z   M 320.05 76.81   L 365.07 76.81   A 4.71 4.71 0.0 0 0 368.40 75.43   L 376.56 67.27   A 1.39 1.38 69.9 0 0 376.96 66.40   Q 377.77 55.35 377.13 44.79   A 0.87 0.87 0.0 0 0 376.26 43.97   L 375.84 43.97   A 1.97 1.96 90.0 0 0 373.88 45.94   L 373.88 64.90   A 1.57 1.57 0.0 0 1 373.31 66.11   Q 369.44 69.28 366.80 72.27   C 365.47 73.78 364.07 74.06 362.25 74.05   Q 354.43 74.02 320.11 74.05   A 0.90 0.90 0.0 0 0 319.21 74.95   L 319.21 75.96   A 0.85 0.84 -90.0 0 0 320.05 76.81   Z"/>
<path xmlns="http://www.w3.org/2000/svg" fill="#010100" fill-opacity="0.996" d="   M 538.98 74.98   A 0.41 0.41 0.0 0 1 539.69 75.29   C 539.45 77.59 538.52 79.17 535.74 79.08   Q 535.15 79.06 523.78 79.07   C 520.99 79.07 520.60 77.58 520.66 75.00   Q 520.88 65.27 520.71 54.35   A 0.68 0.68 0.0 0 0 520.03 53.68   L 507.15 53.68   A 0.43 0.42 0.0 0 0 506.72 54.10   L 506.72 71.69   A 2.39 2.38 90.0 0 1 504.34 74.08   L 491.08 74.08   A 0.73 0.73 0.0 0 0 490.35 74.81   L 490.35 75.97   A 0.82 0.81 90.0 0 0 491.16 76.79   L 505.44 76.79   A 1.09 1.08 -75.5 0 0 506.39 76.22   L 507.06 75.02   A 0.59 0.58 -75.0 0 1 507.57 74.72   L 507.99 74.72   A 0.40 0.40 0.0 0 1 508.37 75.23   Q 507.83 77.07 506.22 78.79   A 0.90 0.87 20.9 0 1 505.57 79.07   L 491.54 79.07   A 2.00 1.98 63.7 0 1 490.32 78.65   Q 488.80 77.46 488.04 76.00   A 1.36 1.33 -59.3 0 1 487.89 75.38   L 487.89 16.35   A 1.11 1.11 0.0 0 1 488.19 15.59   Q 490.32 13.24 491.52 13.25   Q 507.67 13.37 530.87 13.29   A 1.44 1.43 68.9 0 1 531.94 13.77   Q 533.65 15.67 535.90 18.73   C 536.72 19.85 538.38 19.63 538.37 21.30   Q 538.32 38.02 538.30 38.49   Q 538.22 40.37 537.91 41.10   C 537.15 42.89 534.75 42.64 535.30 45.84   A 0.71 0.71 0.0 0 0 535.95 46.42   Q 537.67 46.54 539.74 47.69   A 0.58 0.57 -71.6 0 0 540.59 47.26   C 541.74 37.90 541.41 30.30 541.08 16.03   A 1.47 1.44 -29.4 0 1 541.32 15.20   Q 542.57 13.28 544.05 13.29   Q 559.58 13.34 582.75 13.30   Q 584.09 13.29 586.09 15.17   Q 589.51 18.37 592.14 21.11   A 3.94 3.91 -67.3 0 1 593.25 23.85   L 593.25 64.25   A 2.77 2.75 -22.6 0 1 592.44 66.20   L 585.97 72.68   A 1.45 1.43 59.8 0 0 585.60 74.11   L 585.73 74.55   A 1.05 1.05 0.0 0 1 585.64 75.54   Q 584.11 77.85 582.65 78.72   A 2.50 2.44 28.7 0 1 581.36 79.08   L 544.96 79.08   A 2.60 2.59 88.6 0 1 542.37 76.61   Q 542.24 73.96 541.46 71.67   A 2.00 1.98 35.3 0 1 541.34 70.99   L 541.34 50.40   A 1.42 1.41 90.0 0 0 539.93 48.98   L 539.28 48.98   A 1.17 1.16 90.0 0 0 538.12 50.15   L 538.12 71.83   A 2.19 2.19 0.0 0 1 535.93 74.02   L 523.25 74.02   A 0.69 0.69 0.0 0 0 522.56 74.71   L 522.56 76.12   A 0.68 0.68 0.0 0 0 523.24 76.80   L 536.97 76.80   A 0.86 0.83 19.3 0 0 537.62 76.50   L 538.98 74.98   Z   M 533.15 43.10   L 533.15 41.39   A 0.98 0.97 -86.8 0 1 534.23 40.42   Q 535.45 40.56 535.99 40.07   Q 536.37 39.72 536.40 38.38   Q 536.57 30.43 536.36 22.94   A 0.79 0.77 -84.8 0 0 535.76 22.20   Q 534.96 22.02 533.89 22.31   A 0.57 0.56 -7.8 0 1 533.17 21.77   L 533.17 19.40   A 0.66 0.66 0.0 0 0 532.51 18.74   L 530.86 18.74   A 0.69 0.69 0.0 0 1 530.18 17.94   Q 530.42 16.43 530.28 15.82   A 0.75 0.75 0.0 0 0 529.55 15.25   L 492.55 15.25   A 1.05 1.04 -0.0 0 0 491.50 16.29   L 491.50 71.47   A 0.43 0.43 0.0 0 0 491.93 71.90   L 503.75 71.90   A 0.77 0.76 90.0 0 0 504.51 71.13   L 504.51 51.32   A 0.37 0.37 0.0 0 1 504.88 50.95   L 523.65 50.95   A 0.57 0.56 0.0 0 1 524.22 51.51   L 524.22 71.38   A 0.50 0.50 0.0 0 0 524.72 71.88   L 535.42 71.88   A 0.60 0.60 0.0 0 0 536.02 71.28   L 536.02 49.82   A 0.67 0.66 -0.0 0 0 535.35 49.16   L 533.37 49.16   A 0.63 0.62 -90.0 0 1 532.75 48.53   L 532.75 46.73   A 0.83 0.83 0.0 0 0 531.92 45.90   L 530.53 45.90   A 0.97 0.97 0.0 0 1 529.56 44.93   L 529.56 44.41   A 0.64 0.63 -83.9 0 1 530.33 43.78   Q 531.30 43.98 532.59 43.76   A 0.67 0.67 0.0 0 0 533.15 43.10   Z   M 587.10 21.57   C 587.48 19.48 586.95 18.54 585.02 18.56   Q 584.15 18.57 583.87 18.56   A 0.62 0.62 0.0 0 1 583.26 17.94   L 583.26 16.49   A 1.22 1.21 90.0 0 0 582.05 15.27   L 545.94 15.27   A 0.76 0.76 0.0 0 0 545.18 16.03   L 545.18 71.28   A 0.60 0.60 0.0 0 0 545.78 71.88   L 582.89 71.88   A 0.91 0.91 0.0 0 0 583.80 70.97   L 583.80 69.36   A 0.73 0.73 0.0 0 1 584.49 68.63   L 585.99 68.55   A 1.38 1.35 -72.2 0 0 587.01 68.01   Q 587.39 67.52 587.33 66.11   A 0.69 0.68 -88.2 0 1 588.09 65.39   Q 590.38 65.63 590.80 64.52   A 1.09 0.92 -40.0 0 0 590.86 64.18   Q 590.92 54.68 590.85 23.69   A 1.44 1.36 82.4 0 0 589.11 22.28   Q 588.84 22.37 587.60 22.25   A 0.57 0.57 0.0 0 1 587.10 21.57   Z   M 583.2692 74.9365   A 0.93 0.93 0.0 0 0 582.3375 74.0081   L 545.8176 74.0719   A 0.93 0.93 0.0 0 0 544.8892 75.0035   L 544.8908 75.9235   A 0.93 0.93 0.0 0 0 545.8225 76.8519   L 582.3424 76.7881   A 0.93 0.93 0.0 0 0 583.2708 75.8565   L 583.2692 74.9365   Z"/>
<path xmlns="http://www.w3.org/2000/svg" fill="#00a2f0" d="   M 63.41 60.09   L 84.39 60.09   A 0.70 0.69 90.0 0 0 85.08 59.39   L 85.08 54.62   A 1.12 1.11 -0.0 0 1 86.20 53.51   L 96.67 53.51   A 0.56 0.56 0.0 0 1 97.23 54.07   L 97.23 63.17   A 1.98 1.98 0.0 0 1 96.65 64.57   L 90.51 70.65   A 3.58 3.53 -78.5 0 1 89.36 71.42   Q 88.38 71.82 85.00 71.85   Q 72.91 71.93 57.02 71.81   A 1.41 1.38 -21.1 0 1 56.00 71.37   Q 55.53 70.86 55.33 69.87   A 1.28 1.26 1.1 0 0 54.38 68.89   Q 52.00 68.33 51.67 66.22   A 0.74 0.73 83.7 0 0 50.89 65.59   Q 48.74 65.74 48.70 62.25   Q 48.44 41.80 48.80 24.20   A 2.67 2.65 67.0 0 1 49.50 22.45   Q 52.22 19.49 54.88 16.89   Q 56.57 15.22 59.50 15.20   Q 74.89 15.13 92.75 15.19   A 1.12 1.12 0.0 0 1 93.87 16.31   L 93.87 18.24   A 0.67 0.66 90.0 0 0 94.53 18.91   L 95.99 18.91   A 1.22 1.21 0.0 0 1 97.21 20.12   L 97.21 34.97   A 0.44 0.43 -90.0 0 1 96.78 35.41   L 84.59 35.41   A 0.64 0.64 0.0 0 1 83.95 34.77   L 83.95 28.23   A 0.45 0.45 0.0 0 0 83.50 27.78   L 63.06 27.78   A 0.29 0.29 0.0 0 0 62.77 28.07   L 62.77 59.45   A 0.64 0.64 0.0 0 0 63.41 60.09   Z"/>
<path xmlns="http://www.w3.org/2000/svg" fill="#00a2f0" d="   M 107.55 18.41   Q 108.13 17.94 108.03 16.61   A 1.28 1.27 87.5 0 1 109.28 15.24   Q 127.99 15.03 139.28 15.28   A 1.77 1.51 3.3 0 1 141.03 16.96   Q 140.90 18.03 142.54 18.44   A 1.98 1.93 73.9 0 1 143.49 18.98   L 146.06 21.54   A 2.80 2.77 22.7 0 1 146.88 23.51   L 146.88 64.09   A 1.34 1.33 0.0 0 1 145.54 65.42   L 144.83 65.42   A 0.82 0.81 -87.7 0 0 144.02 66.18   Q 143.85 68.23 141.93 68.79   A 1.39 1.34 -80.7 0 0 141.17 69.36   Q 140.63 70.20 140.61 70.55   A 1.52 1.37 1.6 0 1 139.10 71.84   Q 119.49 71.88 112.08 71.72   A 1.15 1.14 88.0 0 1 110.97 70.67   Q 110.88 69.55 109.78 68.86   C 108.76 68.23 108.11 67.23 107.68 66.10   A 0.95 0.94 -9.1 0 0 106.82 65.49   Q 105.78 65.45 105.38 64.99   A 1.48 1.47 -66.3 0 1 105.00 64.00   L 104.92 19.88   A 1.00 1.00 0.0 0 1 105.69 18.91   L 107.30 18.53   A 0.59 0.58 18.9 0 0 107.55 18.41   Z   M 135.84 28.17   A 0.40 0.40 0.0 0 0 135.44 27.77   L 116.18 27.77   A 0.40 0.40 0.0 0 0 115.78 28.17   L 115.78 59.69   A 0.40 0.40 0.0 0 0 116.18 60.09   L 135.44 60.09   A 0.40 0.40 0.0 0 0 135.84 59.69   L 135.84 28.17   Z"/>
<path xmlns="http://www.w3.org/2000/svg" fill="#00a2f0" d="   M 193.04 71.91   L 154.30 71.91   A 0.92 0.92 0.0 0 1 153.38 70.99   L 153.38 16.16   A 0.92 0.92 0.0 0 1 154.30 15.24   L 164.24 15.24   A 0.92 0.92 0.0 0 1 165.16 16.16   L 165.16 59.11   A 0.92 0.92 0.0 0 0 166.08 60.03   L 193.04 60.03   A 0.92 0.92 0.0 0 1 193.96 60.95   L 193.96 70.99   A 0.92 0.92 0.0 0 1 193.04 71.91   Z"/>
<path xmlns="http://www.w3.org/2000/svg" fill="#00a2f0" d="   M 215.97 60.04   L 248.92 60.04   A 0.77 0.77 0.0 0 1 249.69 60.81   L 249.69 71.12   A 0.77 0.77 0.0 0 1 248.92 71.89   L 203.36 71.89   A 0.77 0.77 0.0 0 1 202.59 71.12   L 202.59 15.98   A 0.77 0.77 0.0 0 1 203.36 15.21   L 214.43 15.21   A 0.77 0.77 0.0 0 1 215.20 15.98   L 215.20 59.27   A 0.77 0.77 0.0 0 0 215.97 60.04   Z"/>
<path xmlns="http://www.w3.org/2000/svg" fill="#00a2f0" d="   M 309.58 22.19   A 1.32 1.32 0.0 0 1 310.90 23.51   L 310.90 70.99   A 0.93 0.93 0.0 0 1 309.97 71.92   L 297.95 71.92   A 0.75 0.74 0.0 0 1 297.20 71.18   L 297.20 51.54   A 0.57 0.57 0.0 0 0 296.63 50.97   L 273.97 50.97   A 0.61 0.61 0.0 0 0 273.36 51.58   L 273.36 71.41   A 0.49 0.48 -90.0 0 1 272.88 71.90   L 260.36 71.90   A 0.49 0.49 0.0 0 1 259.87 71.41   L 259.87 24.61   A 3.38 3.38 0.0 0 1 260.72 22.37   Q 261.69 21.29 262.18 20.08   A 3.04 3.01 85.5 0 1 263.36 18.68   Q 264.76 17.82 265.34 16.49   A 2.14 2.12 -78.1 0 1 267.27 15.22   Q 285.39 15.05 304.22 15.24   A 1.17 1.07 10.5 0 1 305.33 16.72   Q 305.22 16.98 305.28 18.09   A 0.57 0.57 0.0 0 0 305.85 18.64   L 307.42 18.64   A 0.61 0.61 0.0 0 1 308.03 19.25   L 308.03 21.43   A 0.77 0.76 0.0 0 0 308.80 22.19   L 309.58 22.19   Z   M 297.24 28.24   A 0.52 0.52 0.0 0 0 296.72 27.72   L 273.86 27.72   A 0.52 0.52 0.0 0 0 273.34 28.24   L 273.34 38.66   A 0.52 0.52 0.0 0 0 273.86 39.18   L 296.72 39.18   A 0.52 0.52 0.0 0 0 297.24 38.66   L 297.24 28.24   Z"/>
<path xmlns="http://www.w3.org/2000/svg" fill="#ff9800" d="   M 319.81 71.86   A 0.52 0.51 -0.0 0 1 319.29 71.35   L 319.29 15.96   A 0.72 0.71 -90.0 0 1 320.00 15.24   L 366.37 15.24   A 0.94 0.94 0.0 0 1 367.31 16.18   L 367.31 17.76   A 0.74 0.74 0.0 0 0 368.13 18.50   C 370.03 18.28 371.08 18.31 371.18 20.50   Q 371.48 26.95 371.28 35.01   A 1.62 1.61 66.7 0 1 370.86 36.07   Q 369.92 37.09 367.88 36.77   A 0.63 0.63 0.0 0 0 367.15 37.49   Q 367.48 39.73 366.01 39.74   Q 364.99 39.75 364.91 39.79   A 2.19 2.12 -40.6 0 0 364.56 43.59   Q 364.70 43.67 365.96 43.49   A 0.67 0.67 0.0 0 1 366.73 44.15   L 366.73 44.82   A 0.87 0.87 0.0 0 0 367.60 45.69   L 370.14 45.69   A 1.21 1.20 0.0 0 1 371.35 46.89   L 371.35 63.22   A 1.06 1.06 0.0 0 1 371.04 63.97   L 364.05 70.96   A 3.11 3.11 0.0 0 1 361.86 71.86   L 319.81 71.86   Z   M 357.4130 27.4779   A 0.33 0.33 0.0 0 0 357.0818 27.1491   L 333.6020 27.2310   A 0.33 0.33 0.0 0 0 333.2731 27.5622   L 333.3070 37.2621   A 0.33 0.33 0.0 0 0 333.6382 37.5909   L 357.1180 37.5090   A 0.33 0.33 0.0 0 0 357.4469 37.1778   L 357.4130 27.4779   Z   M 357.46 49.29   A 0.56 0.56 0.0 0 0 356.90 48.73   L 333.82 48.73   A 0.56 0.56 0.0 0 0 333.26 49.29   L 333.26 59.57   A 0.56 0.56 0.0 0 0 333.82 60.13   L 356.90 60.13   A 0.56 0.56 0.0 0 0 357.46 59.57   L 357.46 49.29   Z"/>
<path xmlns="http://www.w3.org/2000/svg" fill="#ff9800" d="   M 427.50 21.72   A 0.66 0.66 0.0 0 0 428.32 22.36   Q 429.90 21.99 429.91 23.00   Q 430.00 43.41 429.90 64.26   A 1.07 1.07 0.0 0 1 428.81 65.33   Q 427.31 65.30 426.85 66.52   C 426.18 68.33 424.46 68.63 424.27 70.53   A 1.47 1.47 0.0 0 1 422.81 71.86   L 388.29 71.86   A 1.62 1.60 -27.5 0 1 387.38 71.58   Q 386.53 70.99 386.57 70.07   Q 386.61 69.10 385.70 68.85   Q 383.82 68.33 383.31 66.47   A 1.26 1.24 11.5 0 0 382.86 65.80   Q 382.17 65.27 381.54 65.28   A 0.79 0.79 0.0 0 1 380.74 64.50   Q 380.47 43.83 380.71 23.49   Q 380.73 22.26 382.65 22.34   A 0.78 0.77 -6.3 0 0 383.43 21.37   Q 382.69 18.56 384.98 18.44   A 1.35 1.33 -70.0 0 0 385.89 18.01   Q 386.47 17.37 385.97 16.29   A 0.73 0.72 -12.6 0 1 386.63 15.26   L 423.76 15.26   A 0.79 0.79 0.0 0 1 424.55 16.05   L 424.55 17.86   A 0.63 0.62 0.0 0 0 425.18 18.48   L 426.98 18.48   A 0.52 0.52 0.0 0 1 427.50 19.00   L 427.50 21.72   Z   M 417.42 27.62   A 0.43 0.43 0.0 0 0 416.99 27.19   L 393.67 27.19   A 0.43 0.43 0.0 0 0 393.24 27.62   L 393.24 59.70   A 0.43 0.43 0.0 0 0 393.67 60.13   L 416.99 60.13   A 0.43 0.43 0.0 0 0 417.42 59.70   L 417.42 27.62   Z"/>
<path xmlns="http://www.w3.org/2000/svg" fill="#ff9800" d="   M 470.47 71.22   L 470.47 51.52   A 0.74 0.74 0.0 0 0 469.73 50.78   L 450.13 50.78   A 0.41 0.41 0.0 0 0 449.72 51.19   L 449.72 71.27   A 0.63 0.62 0.0 0 1 449.09 71.89   L 438.44 71.89   A 0.41 0.41 0.0 0 1 438.03 71.48   L 438.03 23.55   A 1.13 1.13 0.0 0 1 438.94 22.44   L 439.44 22.34   A 1.06 1.05 -5.7 0 0 440.29 21.31   L 440.29 19.22   A 0.74 0.73 -90.0 0 1 441.02 18.48   L 442.61 18.48   A 0.58 0.58 0.0 0 0 443.19 17.94   Q 443.27 16.72 442.99 16.17   A 0.57 0.57 0.0 0 1 443.50 15.35   L 475.78 15.35   A 0.58 0.58 0.0 0 1 476.36 15.89   Q 476.39 16.34 476.10 17.45   A 0.89 0.89 0.0 0 0 476.96 18.56   L 478.83 18.56   A 0.46 0.46 0.0 0 1 479.29 19.02   L 479.29 21.93   A 0.29 0.29 0.0 0 0 479.58 22.22   L 481.81 22.22   A 0.76 0.75 -90.0 0 1 482.56 22.98   L 482.56 71.22   A 0.66 0.65 -90.0 0 1 481.91 71.88   L 471.13 71.88   A 0.66 0.66 0.0 0 1 470.47 71.22   Z   M 470.4106 27.6337   A 0.57 0.57 0.0 0 0 469.8386 27.0657   L 450.1787 27.1344   A 0.57 0.57 0.0 0 0 449.6107 27.7063   L 449.6494 38.7863   A 0.57 0.57 0.0 0 0 450.2214 39.3543   L 469.8813 39.2856   A 0.57 0.57 0.0 0 0 470.4493 38.7137   L 470.4106 27.6337   Z"/>
<path xmlns="http://www.w3.org/2000/svg" fill="#ff9800" d="   M 532.59 43.76   Q 531.30 43.98 530.33 43.78   A 0.64 0.63 -83.9 0 0 529.56 44.41   L 529.56 44.93   A 0.97 0.97 0.0 0 0 530.53 45.90   L 531.92 45.90   A 0.83 0.83 0.0 0 1 532.75 46.73   L 532.75 48.53   A 0.63 0.62 90.0 0 0 533.37 49.16   L 535.35 49.16   A 0.67 0.66 0.0 0 1 536.02 49.82   L 536.02 71.28   A 0.60 0.60 0.0 0 1 535.42 71.88   L 524.72 71.88   A 0.50 0.50 0.0 0 1 524.22 71.38   L 524.22 51.51   A 0.57 0.56 -0.0 0 0 523.65 50.95   L 504.88 50.95   A 0.37 0.37 0.0 0 0 504.51 51.32   L 504.51 71.13   A 0.77 0.76 90.0 0 1 503.75 71.90   L 491.93 71.90   A 0.43 0.43 0.0 0 1 491.50 71.47   L 491.50 16.29   A 1.05 1.04 -0.0 0 1 492.55 15.25   L 529.55 15.25   A 0.75 0.75 0.0 0 1 530.28 15.82   Q 530.42 16.43 530.18 17.94   A 0.69 0.69 0.0 0 0 530.86 18.74   L 532.51 18.74   A 0.66 0.66 0.0 0 1 533.17 19.40   L 533.17 21.77   A 0.57 0.56 -7.8 0 0 533.89 22.31   Q 534.96 22.02 535.76 22.20   A 0.79 0.77 -84.8 0 1 536.36 22.94   Q 536.57 30.43 536.40 38.38   Q 536.37 39.72 535.99 40.07   Q 535.45 40.56 534.23 40.42   A 0.98 0.97 -86.8 0 0 533.15 41.39   L 533.15 43.10   A 0.67 0.67 0.0 0 1 532.59 43.76   Z   M 524.1305 27.6829   A 0.64 0.64 0.0 0 0 523.4894 27.0440   L 505.1094 27.0760   A 0.64 0.64 0.0 0 0 504.4705 27.7172   L 504.4895 38.6171   A 0.64 0.64 0.0 0 0 505.1306 39.2560   L 523.5106 39.2240   A 0.64 0.64 0.0 0 0 524.1495 38.5828   L 524.1305 27.6829   Z"/>
<path xmlns="http://www.w3.org/2000/svg" fill="#ff9800" d="   M 587.60 22.25   Q 588.84 22.37 589.11 22.28   A 1.44 1.36 82.4 0 1 590.85 23.69   Q 590.92 54.68 590.86 64.18   A 1.09 0.92 -40.0 0 1 590.80 64.52   Q 590.38 65.63 588.09 65.39   A 0.69 0.68 -88.2 0 0 587.33 66.11   Q 587.39 67.52 587.01 68.01   A 1.38 1.35 -72.2 0 1 585.99 68.55   L 584.49 68.63   A 0.73 0.73 0.0 0 0 583.80 69.36   L 583.80 70.97   A 0.91 0.91 0.0 0 1 582.89 71.88   L 545.78 71.88   A 0.60 0.60 0.0 0 1 545.18 71.28   L 545.18 16.03   A 0.76 0.76 0.0 0 1 545.94 15.27   L 582.05 15.27   A 1.22 1.21 -90.0 0 1 583.26 16.49   L 583.26 17.94   A 0.62 0.62 0.0 0 0 583.87 18.56   Q 584.15 18.57 585.02 18.56   C 586.95 18.54 587.48 19.48 587.10 21.57   A 0.57 0.57 0.0 0 0 587.60 22.25   Z   M 578.28 27.90   A 0.50 0.50 0.0 0 0 577.78 27.40   L 558.16 27.40   A 0.50 0.50 0.0 0 0 557.66 27.90   L 557.66 59.64   A 0.50 0.50 0.0 0 0 558.16 60.14   L 577.78 60.14   A 0.50 0.50 0.0 0 0 578.28 59.64   L 578.28 27.90   Z"/>
<path xmlns="http://www.w3.org/2000/svg" fill="#010100" fill-opacity="0.996" d="   M 357.4469 37.1778   A 0.33 0.33 0.0 0 1 357.1180 37.5090   L 333.6382 37.5909   A 0.33 0.33 0.0 0 1 333.3070 37.2621   L 333.2731 27.5622   A 0.33 0.33 0.0 0 1 333.6020 27.2310   L 357.0818 27.1491   A 0.33 0.33 0.0 0 1 357.4130 27.4779   L 357.4469 37.1778   Z   M 353.96 30.21   A 0.62 0.62 0.0 0 0 353.34 29.59   L 336.70 29.59   A 0.62 0.62 0.0 0 0 336.08 30.21   L 336.08 35.83   A 0.62 0.62 0.0 0 0 336.70 36.45   L 338.89 36.45   A 0.62 0.62 0.0 0 0 339.51 35.83   L 339.51 34.04   A 0.62 0.62 0.0 0 1 340.13 33.42   L 353.34 33.42   A 0.62 0.62 0.0 0 0 353.96 32.80   L 353.96 30.21   Z"/>
<path xmlns="http://www.w3.org/2000/svg" fill="#010100" fill-opacity="0.996" d="   M 417.42 59.70   A 0.43 0.43 0.0 0 1 416.99 60.13   L 393.67 60.13   A 0.43 0.43 0.0 0 1 393.24 59.70   L 393.24 27.62   A 0.43 0.43 0.0 0 1 393.67 27.19   L 416.99 27.19   A 0.43 0.43 0.0 0 1 417.42 27.62   L 417.42 59.70   Z   M 413.6760 30.1746   A 0.59 0.59 0.0 0 0 413.0850 29.5856   L 396.6050 29.6144   A 0.59 0.59 0.0 0 0 396.0161 30.2054   L 396.0640 57.6454   A 0.59 0.59 0.0 0 0 396.6550 58.2344   L 413.1350 58.2056   A 0.59 0.59 0.0 0 0 413.7239 57.6146   L 413.6760 30.1746   Z"/>
<path xmlns="http://www.w3.org/2000/svg" fill="#010100" fill-opacity="0.996" d="   M 470.4493 38.7137   A 0.57 0.57 0.0 0 1 469.8813 39.2856   L 450.2214 39.3543   A 0.57 0.57 0.0 0 1 449.6494 38.7863   L 449.6107 27.7063   A 0.57 0.57 0.0 0 1 450.1787 27.1344   L 469.8386 27.0657   A 0.57 0.57 0.0 0 1 470.4106 27.6337   L 470.4493 38.7137   Z   M 459.47 29.40   Q 453.06 29.44 452.59 29.52   A 0.64 0.64 0.0 0 0 452.05 30.15   L 452.02 36.60   A 0.98 0.98 0.0 0 0 453.00 37.58   L 454.15 37.58   A 1.02 1.02 0.0 0 0 455.17 36.56   L 455.17 33.65   A 0.71 0.71 0.0 0 1 455.86 32.94   Q 456.41 32.92 459.50 32.90   Q 462.58 32.88 463.13 32.89   A 0.71 0.71 0.0 0 1 463.83 33.59   L 463.87 36.50   A 1.02 1.02 0.0 0 0 464.90 37.51   L 466.05 37.50   A 0.98 0.98 0.0 0 0 467.02 36.50   L 466.91 30.05   A 0.64 0.64 0.0 0 0 466.36 29.43   Q 465.89 29.36 459.47 29.40   Z"/>
<path xmlns="http://www.w3.org/2000/svg" fill="#010100" fill-opacity="0.996" d="   M 524.1495 38.5828   A 0.64 0.64 0.0 0 1 523.5106 39.2240   L 505.1306 39.2560   A 0.64 0.64 0.0 0 1 504.4895 38.6171   L 504.4705 27.7172   A 0.64 0.64 0.0 0 1 505.1094 27.0760   L 523.4894 27.0440   A 0.64 0.64 0.0 0 1 524.1305 27.6829   L 524.1495 38.5828   Z   M 506.70 30.14   L 506.70 36.72   A 1.03 1.03 0.0 0 0 507.73 37.75   L 509.57 37.75   A 1.00 0.99 90.0 0 0 510.56 36.75   L 510.56 33.86   A 0.92 0.92 0.0 0 1 511.48 32.94   L 516.59 32.94   A 1.01 1.01 0.0 0 1 517.58 34.17   Q 517.16 36.08 517.51 36.88   A 1.79 1.79 0.0 0 0 520.94 36.15   L 520.89 29.85   A 0.51 0.51 0.0 0 0 520.38 29.35   L 507.50 29.35   A 0.80 0.79 0.0 0 0 506.70 30.14   Z"/>
<path xmlns="http://www.w3.org/2000/svg" fill="#010100" fill-opacity="0.996" d="   M 578.28 59.64   A 0.50 0.50 0.0 0 1 577.78 60.14   L 558.16 60.14   A 0.50 0.50 0.0 0 1 557.66 59.64   L 557.66 27.90   A 0.50 0.50 0.0 0 1 558.16 27.40   L 577.78 27.40   A 0.50 0.50 0.0 0 1 578.28 27.90   L 578.28 59.64   Z   M 567.44 33.02   Q 570.76 33.02 571.18 33.03   A 0.55 0.55 0.0 0 1 571.72 33.58   L 571.72 57.31   A 0.90 0.90 0.0 0 0 572.62 58.21   L 573.86 58.21   A 0.96 0.95 0.0 0 0 574.82 57.26   L 574.82 30.20   A 0.48 0.48 0.0 0 0 574.35 29.72   Q 572.96 29.67 567.44 29.66   Q 561.93 29.65 560.53 29.70   A 0.48 0.48 0.0 0 0 560.07 30.18   L 559.99 57.24   A 0.96 0.95 0.2 0 0 560.95 58.19   L 562.19 58.20   A 0.90 0.90 0.0 0 0 563.09 57.30   L 563.16 33.57   A 0.55 0.55 0.0 0 1 563.70 33.02   Q 564.12 33.02 567.44 33.02   Z   M 569.20 36.07   A 0.43 0.43 0.0 0 0 568.77 35.64   L 566.11 35.64   A 0.43 0.43 0.0 0 0 565.68 36.07   L 565.68 55.77   A 0.43 0.43 0.0 0 0 566.11 56.20   L 568.77 56.20   A 0.43 0.43 0.0 0 0 569.20 55.77   L 569.20 36.07   Z"/>
<path xmlns="http://www.w3.org/2000/svg" fill="#010100" fill-opacity="0.996" d="   M 135.84 59.69   A 0.40 0.40 0.0 0 1 135.44 60.09   L 116.18 60.09   A 0.40 0.40 0.0 0 1 115.78 59.69   L 115.78 28.17   A 0.40 0.40 0.0 0 1 116.18 27.77   L 135.44 27.77   A 0.40 0.40 0.0 0 1 135.84 28.17   L 135.84 59.69   Z   M 132.87 32.85   A 0.58 0.58 0.0 0 0 133.45 32.27   L 133.45 30.56   A 0.58 0.58 0.0 0 0 132.87 29.98   L 119.08 29.98   A 0.58 0.58 0.0 0 0 118.50 30.56   L 118.50 57.14   A 0.58 0.58 0.0 0 0 119.08 57.72   L 120.83 57.72   A 0.58 0.58 0.0 0 0 121.41 57.14   L 121.41 33.43   A 0.58 0.58 0.0 0 1 121.99 32.85   L 132.87 32.85   Z   M 133.1229 36.0623   A 0.46 0.46 0.0 0 0 132.6621 35.6031   L 124.7021 35.6170   A 0.46 0.46 0.0 0 0 124.2429 36.0778   L 124.2771 55.6977   A 0.46 0.46 0.0 0 0 124.7379 56.1569   L 132.6979 56.1430   A 0.46 0.46 0.0 0 0 133.1571 55.6822   L 133.1229 36.0623   Z"/>
<path xmlns="http://www.w3.org/2000/svg" fill="#010100" fill-opacity="0.996" d="   M 297.24 38.66   A 0.52 0.52 0.0 0 1 296.72 39.18   L 273.86 39.18   A 0.52 0.52 0.0 0 1 273.34 38.66   L 273.34 28.24   A 0.52 0.52 0.0 0 1 273.86 27.72   L 296.72 27.72   A 0.52 0.52 0.0 0 1 297.24 28.24   L 297.24 38.66   Z   M 284.97 32.78   Q 289.78 32.79 290.37 32.79   A 0.65 0.65 0.0 0 1 291.02 33.44   L 291.02 36.27   A 0.94 0.94 0.0 0 0 291.96 37.21   L 292.88 37.21   A 0.85 0.85 0.0 0 0 293.73 36.36   L 293.73 30.57   A 0.57 0.56 89.8 0 0 293.17 30.00   Q 289.05 30.04 284.97 30.03   Q 280.90 30.02 276.78 29.96   A 0.57 0.56 -89.4 0 0 276.21 30.52   L 276.18 36.31   A 0.85 0.85 0.0 0 0 277.02 37.16   L 277.94 37.17   A 0.94 0.94 0.0 0 0 278.89 36.23   L 278.91 33.40   A 0.65 0.65 0.0 0 1 279.57 32.75   Q 280.16 32.77 284.97 32.78   Z"/>
<path xmlns="http://www.w3.org/2000/svg" fill="#fbbc00" fill-opacity="0.996" d="   M 459.50 32.90   Q 456.41 32.92 455.86 32.94   A 0.71 0.71 0.0 0 0 455.17 33.65   L 455.17 36.56   A 1.02 1.02 0.0 0 1 454.15 37.58   L 453.00 37.58   A 0.98 0.98 0.0 0 1 452.02 36.60   L 452.05 30.15   A 0.64 0.64 0.0 0 1 452.59 29.52   Q 453.06 29.44 459.47 29.40   Q 465.89 29.36 466.36 29.43   A 0.64 0.64 0.0 0 1 466.91 30.05   L 467.02 36.50   A 0.98 0.98 0.0 0 1 466.05 37.50   L 464.90 37.51   A 1.02 1.02 0.0 0 1 463.87 36.50   L 463.83 33.59   A 0.71 0.71 0.0 0 0 463.13 32.89   Q 462.58 32.88 459.50 32.90   Z"/>
<path xmlns="http://www.w3.org/2000/svg" fill="#fbbc00" fill-opacity="0.996" d="   M 507.50 29.35   L 520.38 29.35   A 0.51 0.51 0.0 0 1 520.89 29.85   L 520.94 36.15   A 1.79 1.79 0.0 0 1 517.51 36.88   Q 517.16 36.08 517.58 34.17   A 1.01 1.01 0.0 0 0 516.59 32.94   L 511.48 32.94   A 0.92 0.92 0.0 0 0 510.56 33.86   L 510.56 36.75   A 1.00 0.99 -90.0 0 1 509.57 37.75   L 507.73 37.75   A 1.03 1.03 0.0 0 1 506.70 36.72   L 506.70 30.14   A 0.80 0.79 0.0 0 1 507.50 29.35   Z"/>
<path xmlns="http://www.w3.org/2000/svg" fill="#fbbc00" fill-opacity="0.996" d="   M 353.96 30.21   L 353.96 32.80   A 0.62 0.62 0.0 0 1 353.34 33.42   L 340.13 33.42   A 0.62 0.62 0.0 0 0 339.51 34.04   L 339.51 35.83   A 0.62 0.62 0.0 0 1 338.89 36.45   L 336.70 36.45   A 0.62 0.62 0.0 0 1 336.08 35.83   L 336.08 30.21   A 0.62 0.62 0.0 0 1 336.70 29.59   L 353.34 29.59   A 0.62 0.62 0.0 0 1 353.96 30.21   Z"/>
<path xmlns="http://www.w3.org/2000/svg" fill="#fbbc00" fill-opacity="0.996" d="   M 413.7239 57.6146   A 0.59 0.59 0.0 0 1 413.1350 58.2056   L 396.6550 58.2344   A 0.59 0.59 0.0 0 1 396.0640 57.6454   L 396.0161 30.2054   A 0.59 0.59 0.0 0 1 396.6050 29.6144   L 413.0850 29.5856   A 0.59 0.59 0.0 0 1 413.6760 30.1746   L 413.7239 57.6146   Z   M 410.2424 33.2004   A 0.26 0.26 0.0 0 0 409.9815 32.9413   L 399.2416 32.9788   A 0.26 0.26 0.0 0 0 398.9825 33.2397   L 399.0576 54.7396   A 0.26 0.26 0.0 0 0 399.3185 54.9987   L 410.0584 54.9612   A 0.26 0.26 0.0 0 0 410.3175 54.7003   L 410.2424 33.2004   Z"/>
<path xmlns="http://www.w3.org/2000/svg" fill="#fbbc00" fill-opacity="0.996" d="   M 567.44 29.66   Q 572.96 29.67 574.35 29.72   A 0.48 0.48 0.0 0 1 574.82 30.20   L 574.82 57.26   A 0.96 0.95 0.0 0 1 573.86 58.21   L 572.62 58.21   A 0.90 0.90 0.0 0 1 571.72 57.31   L 571.72 33.58   A 0.55 0.55 0.0 0 0 571.18 33.03   Q 570.76 33.02 567.44 33.02   Q 564.12 33.02 563.70 33.02   A 0.55 0.55 0.0 0 0 563.16 33.57   L 563.09 57.30   A 0.90 0.90 0.0 0 1 562.19 58.20   L 560.95 58.19   A 0.96 0.95 0.2 0 1 559.99 57.24   L 560.07 30.18   A 0.48 0.48 0.0 0 1 560.53 29.70   Q 561.93 29.65 567.44 29.66   Z"/>
<path xmlns="http://www.w3.org/2000/svg" fill="#ffea00" fill-opacity="0.996" d="   M 65.27 57.33   L 65.27 30.50   A 0.48 0.48 0.0 0 1 65.75 30.02   L 80.99 30.02   A 0.48 0.48 0.0 0 1 81.47 30.50   L 81.47 32.42   A 0.48 0.48 0.0 0 1 80.99 32.90   L 68.63 32.90   A 0.48 0.48 0.0 0 0 68.15 33.38   L 68.15 57.33   A 0.48 0.48 0.0 0 1 67.67 57.81   L 65.75 57.81   A 0.48 0.48 0.0 0 1 65.27 57.33   Z"/>
<path xmlns="http://www.w3.org/2000/svg" fill="#ffea00" fill-opacity="0.996" d="   M 132.87 32.85   L 121.99 32.85   A 0.58 0.58 0.0 0 0 121.41 33.43   L 121.41 57.14   A 0.58 0.58 0.0 0 1 120.83 57.72   L 119.08 57.72   A 0.58 0.58 0.0 0 1 118.50 57.14   L 118.50 30.56   A 0.58 0.58 0.0 0 1 119.08 29.98   L 132.87 29.98   A 0.58 0.58 0.0 0 1 133.45 30.56   L 133.45 32.27   A 0.58 0.58 0.0 0 1 132.87 32.85   Z"/>
<path xmlns="http://www.w3.org/2000/svg" fill="#ffea00" fill-opacity="0.996" d="   M 284.97 30.03   Q 289.05 30.04 293.17 30.00   A 0.57 0.56 89.8 0 1 293.73 30.57   L 293.73 36.36   A 0.85 0.85 0.0 0 1 292.88 37.21   L 291.96 37.21   A 0.94 0.94 0.0 0 1 291.02 36.27   L 291.02 33.44   A 0.65 0.65 0.0 0 0 290.37 32.79   Q 289.78 32.79 284.97 32.78   Q 280.16 32.77 279.57 32.75   A 0.65 0.65 0.0 0 0 278.91 33.40   L 278.89 36.23   A 0.94 0.94 0.0 0 1 277.94 37.17   L 277.02 37.16   A 0.85 0.85 0.0 0 1 276.18 36.31   L 276.21 30.52   A 0.57 0.56 -89.4 0 1 276.78 29.96   Q 280.90 30.02 284.97 30.03   Z"/>
<path xmlns="http://www.w3.org/2000/svg" fill="#010100" fill-opacity="0.996" d="   M 410.3175 54.7003   A 0.26 0.26 0.0 0 1 410.0584 54.9612   L 399.3185 54.9987   A 0.26 0.26 0.0 0 1 399.0576 54.7396   L 398.9825 33.2397   A 0.26 0.26 0.0 0 1 399.2416 32.9788   L 409.9815 32.9413   A 0.26 0.26 0.0 0 1 410.2424 33.2004   L 410.3175 54.7003   Z   M 408.40 36.13   A 0.50 0.50 0.0 0 0 407.90 35.63   L 401.66 35.63   A 0.50 0.50 0.0 0 0 401.16 36.13   L 401.16 52.93   A 0.50 0.50 0.0 0 0 401.66 53.43   L 407.90 53.43   A 0.50 0.50 0.0 0 0 408.40 52.93   L 408.40 36.13   Z"/>
<path xmlns="http://www.w3.org/2000/svg" fill="#fbbc00" fill-opacity="0.996" d="   M 320.05 76.81   A 0.85 0.84 -90.0 0 1 319.21 75.96   L 319.21 74.95   A 0.90 0.90 0.0 0 1 320.11 74.05   Q 354.43 74.02 362.25 74.05   C 364.07 74.06 365.47 73.78 366.80 72.27   Q 369.44 69.28 373.31 66.11   A 1.57 1.57 0.0 0 0 373.88 64.90   L 373.88 45.94   A 1.97 1.96 90.0 0 1 375.84 43.97   L 376.26 43.97   A 0.87 0.87 0.0 0 1 377.13 44.79   Q 377.77 55.35 376.96 66.40   A 1.39 1.38 69.9 0 1 376.56 67.27   L 368.40 75.43   A 4.71 4.71 0.0 0 1 365.07 76.81   L 320.05 76.81   Z"/>
<path xmlns="http://www.w3.org/2000/svg" fill="#010100" fill-opacity="0.996" d="   M 357.46 59.57   A 0.56 0.56 0.0 0 1 356.90 60.13   L 333.82 60.13   A 0.56 0.56 0.0 0 1 333.26 59.57   L 333.26 49.29   A 0.56 0.56 0.0 0 1 333.82 48.73   L 356.90 48.73   A 0.56 0.56 0.0 0 1 357.46 49.29   L 357.46 59.57   Z   M 336.78 58.14   L 338.58 58.14   A 1.02 1.01 -4.1 0 0 339.59 56.98   Q 339.43 55.92 339.53 55.32   A 0.62 0.62 0.0 0 1 340.14 54.81   L 352.59 54.81   A 1.59 1.59 0.0 0 0 354.18 53.22   L 354.18 52.63   A 1.41 1.40 0.0 0 0 352.77 51.23   L 336.86 51.23   A 0.76 0.76 0.0 0 0 336.10 51.99   L 336.10 57.47   A 0.68 0.67 -0.0 0 0 336.78 58.14   Z"/>
<path xmlns="http://www.w3.org/2000/svg" fill="#fbbc00" fill-opacity="0.996" d="   M 336.78 58.14   A 0.68 0.67 0.0 0 1 336.10 57.47   L 336.10 51.99   A 0.76 0.76 0.0 0 1 336.86 51.23   L 352.77 51.23   A 1.41 1.40 -0.0 0 1 354.18 52.63   L 354.18 53.22   A 1.59 1.59 0.0 0 1 352.59 54.81   L 340.14 54.81   A 0.62 0.62 0.0 0 0 339.53 55.32   Q 339.43 55.92 339.59 56.98   A 1.02 1.01 -4.1 0 1 338.58 58.14   L 336.78 58.14   Z"/>
<ellipse xmlns="http://www.w3.org/2000/svg" fill="#ff9800" cx="0.00" cy="0.00" transform="translate(106.04,69.85) rotate(-134.7)" rx="2.47" ry="0.84"/>
<rect xmlns="http://www.w3.org/2000/svg" fill="#fbbc00" fill-opacity="0.996" x="-19.19" y="-1.39" transform="translate(564.08,75.43) rotate(-0.1)" width="38.38" height="2.78" rx="0.93"/>
</g></g></g></g></svg>